%TF.GenerationSoftware,KiCad,Pcbnew,(6.0.8-1)-1*%
%TF.CreationDate,2022-12-26T11:19:25-06:00*%
%TF.ProjectId,CAN Distribution Board With Power v2,43414e20-4469-4737-9472-69627574696f,rev?*%
%TF.SameCoordinates,Original*%
%TF.FileFunction,Legend,Top*%
%TF.FilePolarity,Positive*%
%FSLAX46Y46*%
G04 Gerber Fmt 4.6, Leading zero omitted, Abs format (unit mm)*
G04 Created by KiCad (PCBNEW (6.0.8-1)-1) date 2022-12-26 11:19:25*
%MOMM*%
%LPD*%
G01*
G04 APERTURE LIST*
%ADD10C,0.150000*%
%ADD11C,0.120000*%
G04 APERTURE END LIST*
D10*
X124300000Y-86900000D02*
X123800000Y-86900000D01*
X123800000Y-86900000D02*
X123800000Y-90700000D01*
X123800000Y-90700000D02*
X124300000Y-90700000D01*
X124300000Y-90700000D02*
X124300000Y-86900000D01*
G36*
X124300000Y-86900000D02*
G01*
X123800000Y-86900000D01*
X123800000Y-90700000D01*
X124300000Y-90700000D01*
X124300000Y-86900000D01*
G37*
X123100000Y-86900000D02*
X122600000Y-86900000D01*
X122600000Y-86900000D02*
X122600000Y-90700000D01*
X122600000Y-90700000D02*
X123100000Y-90700000D01*
X123100000Y-90700000D02*
X123100000Y-86900000D01*
G36*
X123100000Y-86900000D02*
G01*
X122600000Y-86900000D01*
X122600000Y-90700000D01*
X123100000Y-90700000D01*
X123100000Y-86900000D01*
G37*
X111107023Y-101252142D02*
X111059404Y-101299761D01*
X110916547Y-101347380D01*
X110821309Y-101347380D01*
X110678452Y-101299761D01*
X110583214Y-101204523D01*
X110535595Y-101109285D01*
X110487976Y-100918809D01*
X110487976Y-100775952D01*
X110535595Y-100585476D01*
X110583214Y-100490238D01*
X110678452Y-100395000D01*
X110821309Y-100347380D01*
X110916547Y-100347380D01*
X111059404Y-100395000D01*
X111107023Y-100442619D01*
X111487976Y-101061666D02*
X111964166Y-101061666D01*
X111392738Y-101347380D02*
X111726071Y-100347380D01*
X112059404Y-101347380D01*
X112392738Y-101347380D02*
X112392738Y-100347380D01*
X112964166Y-101347380D01*
X112964166Y-100347380D01*
X114202261Y-101347380D02*
X114202261Y-100347380D01*
X114440357Y-100347380D01*
X114583214Y-100395000D01*
X114678452Y-100490238D01*
X114726071Y-100585476D01*
X114773690Y-100775952D01*
X114773690Y-100918809D01*
X114726071Y-101109285D01*
X114678452Y-101204523D01*
X114583214Y-101299761D01*
X114440357Y-101347380D01*
X114202261Y-101347380D01*
X115202261Y-101347380D02*
X115202261Y-100680714D01*
X115202261Y-100347380D02*
X115154642Y-100395000D01*
X115202261Y-100442619D01*
X115249880Y-100395000D01*
X115202261Y-100347380D01*
X115202261Y-100442619D01*
X115630833Y-101299761D02*
X115726071Y-101347380D01*
X115916547Y-101347380D01*
X116011785Y-101299761D01*
X116059404Y-101204523D01*
X116059404Y-101156904D01*
X116011785Y-101061666D01*
X115916547Y-101014047D01*
X115773690Y-101014047D01*
X115678452Y-100966428D01*
X115630833Y-100871190D01*
X115630833Y-100823571D01*
X115678452Y-100728333D01*
X115773690Y-100680714D01*
X115916547Y-100680714D01*
X116011785Y-100728333D01*
X116345119Y-100680714D02*
X116726071Y-100680714D01*
X116487976Y-100347380D02*
X116487976Y-101204523D01*
X116535595Y-101299761D01*
X116630833Y-101347380D01*
X116726071Y-101347380D01*
X117059404Y-101347380D02*
X117059404Y-100680714D01*
X117059404Y-100871190D02*
X117107023Y-100775952D01*
X117154642Y-100728333D01*
X117249880Y-100680714D01*
X117345119Y-100680714D01*
X117678452Y-101347380D02*
X117678452Y-100680714D01*
X117678452Y-100347380D02*
X117630833Y-100395000D01*
X117678452Y-100442619D01*
X117726071Y-100395000D01*
X117678452Y-100347380D01*
X117678452Y-100442619D01*
X118154642Y-101347380D02*
X118154642Y-100347380D01*
X118154642Y-100728333D02*
X118249880Y-100680714D01*
X118440357Y-100680714D01*
X118535595Y-100728333D01*
X118583214Y-100775952D01*
X118630833Y-100871190D01*
X118630833Y-101156904D01*
X118583214Y-101252142D01*
X118535595Y-101299761D01*
X118440357Y-101347380D01*
X118249880Y-101347380D01*
X118154642Y-101299761D01*
X119487976Y-100680714D02*
X119487976Y-101347380D01*
X119059404Y-100680714D02*
X119059404Y-101204523D01*
X119107023Y-101299761D01*
X119202261Y-101347380D01*
X119345119Y-101347380D01*
X119440357Y-101299761D01*
X119487976Y-101252142D01*
X119821309Y-100680714D02*
X120202261Y-100680714D01*
X119964166Y-100347380D02*
X119964166Y-101204523D01*
X120011785Y-101299761D01*
X120107023Y-101347380D01*
X120202261Y-101347380D01*
X120535595Y-101347380D02*
X120535595Y-100680714D01*
X120535595Y-100347380D02*
X120487976Y-100395000D01*
X120535595Y-100442619D01*
X120583214Y-100395000D01*
X120535595Y-100347380D01*
X120535595Y-100442619D01*
X121154642Y-101347380D02*
X121059404Y-101299761D01*
X121011785Y-101252142D01*
X120964166Y-101156904D01*
X120964166Y-100871190D01*
X121011785Y-100775952D01*
X121059404Y-100728333D01*
X121154642Y-100680714D01*
X121297500Y-100680714D01*
X121392738Y-100728333D01*
X121440357Y-100775952D01*
X121487976Y-100871190D01*
X121487976Y-101156904D01*
X121440357Y-101252142D01*
X121392738Y-101299761D01*
X121297500Y-101347380D01*
X121154642Y-101347380D01*
X121916547Y-100680714D02*
X121916547Y-101347380D01*
X121916547Y-100775952D02*
X121964166Y-100728333D01*
X122059404Y-100680714D01*
X122202261Y-100680714D01*
X122297500Y-100728333D01*
X122345119Y-100823571D01*
X122345119Y-101347380D01*
X123916547Y-100823571D02*
X124059404Y-100871190D01*
X124107023Y-100918809D01*
X124154642Y-101014047D01*
X124154642Y-101156904D01*
X124107023Y-101252142D01*
X124059404Y-101299761D01*
X123964166Y-101347380D01*
X123583214Y-101347380D01*
X123583214Y-100347380D01*
X123916547Y-100347380D01*
X124011785Y-100395000D01*
X124059404Y-100442619D01*
X124107023Y-100537857D01*
X124107023Y-100633095D01*
X124059404Y-100728333D01*
X124011785Y-100775952D01*
X123916547Y-100823571D01*
X123583214Y-100823571D01*
X124726071Y-101347380D02*
X124630833Y-101299761D01*
X124583214Y-101252142D01*
X124535595Y-101156904D01*
X124535595Y-100871190D01*
X124583214Y-100775952D01*
X124630833Y-100728333D01*
X124726071Y-100680714D01*
X124868928Y-100680714D01*
X124964166Y-100728333D01*
X125011785Y-100775952D01*
X125059404Y-100871190D01*
X125059404Y-101156904D01*
X125011785Y-101252142D01*
X124964166Y-101299761D01*
X124868928Y-101347380D01*
X124726071Y-101347380D01*
X125916547Y-101347380D02*
X125916547Y-100823571D01*
X125868928Y-100728333D01*
X125773690Y-100680714D01*
X125583214Y-100680714D01*
X125487976Y-100728333D01*
X125916547Y-101299761D02*
X125821309Y-101347380D01*
X125583214Y-101347380D01*
X125487976Y-101299761D01*
X125440357Y-101204523D01*
X125440357Y-101109285D01*
X125487976Y-101014047D01*
X125583214Y-100966428D01*
X125821309Y-100966428D01*
X125916547Y-100918809D01*
X126392738Y-101347380D02*
X126392738Y-100680714D01*
X126392738Y-100871190D02*
X126440357Y-100775952D01*
X126487976Y-100728333D01*
X126583214Y-100680714D01*
X126678452Y-100680714D01*
X127440357Y-101347380D02*
X127440357Y-100347380D01*
X127440357Y-101299761D02*
X127345119Y-101347380D01*
X127154642Y-101347380D01*
X127059404Y-101299761D01*
X127011785Y-101252142D01*
X126964166Y-101156904D01*
X126964166Y-100871190D01*
X127011785Y-100775952D01*
X127059404Y-100728333D01*
X127154642Y-100680714D01*
X127345119Y-100680714D01*
X127440357Y-100728333D01*
X110821309Y-103338333D02*
X110773690Y-103290714D01*
X110678452Y-103147857D01*
X110630833Y-103052619D01*
X110583214Y-102909761D01*
X110535595Y-102671666D01*
X110535595Y-102481190D01*
X110583214Y-102243095D01*
X110630833Y-102100238D01*
X110678452Y-102005000D01*
X110773690Y-101862142D01*
X110821309Y-101814523D01*
X111630833Y-102909761D02*
X111535595Y-102957380D01*
X111345119Y-102957380D01*
X111249880Y-102909761D01*
X111202261Y-102862142D01*
X111154642Y-102766904D01*
X111154642Y-102481190D01*
X111202261Y-102385952D01*
X111249880Y-102338333D01*
X111345119Y-102290714D01*
X111535595Y-102290714D01*
X111630833Y-102338333D01*
X111964166Y-103338333D02*
X112011785Y-103290714D01*
X112107023Y-103147857D01*
X112154642Y-103052619D01*
X112202261Y-102909761D01*
X112249880Y-102671666D01*
X112249880Y-102481190D01*
X112202261Y-102243095D01*
X112154642Y-102100238D01*
X112107023Y-102005000D01*
X112011785Y-101862142D01*
X111964166Y-101814523D01*
X113440357Y-102052619D02*
X113487976Y-102005000D01*
X113583214Y-101957380D01*
X113821309Y-101957380D01*
X113916547Y-102005000D01*
X113964166Y-102052619D01*
X114011785Y-102147857D01*
X114011785Y-102243095D01*
X113964166Y-102385952D01*
X113392738Y-102957380D01*
X114011785Y-102957380D01*
X114630833Y-101957380D02*
X114726071Y-101957380D01*
X114821309Y-102005000D01*
X114868928Y-102052619D01*
X114916547Y-102147857D01*
X114964166Y-102338333D01*
X114964166Y-102576428D01*
X114916547Y-102766904D01*
X114868928Y-102862142D01*
X114821309Y-102909761D01*
X114726071Y-102957380D01*
X114630833Y-102957380D01*
X114535595Y-102909761D01*
X114487976Y-102862142D01*
X114440357Y-102766904D01*
X114392738Y-102576428D01*
X114392738Y-102338333D01*
X114440357Y-102147857D01*
X114487976Y-102052619D01*
X114535595Y-102005000D01*
X114630833Y-101957380D01*
X115345119Y-102052619D02*
X115392738Y-102005000D01*
X115487976Y-101957380D01*
X115726071Y-101957380D01*
X115821309Y-102005000D01*
X115868928Y-102052619D01*
X115916547Y-102147857D01*
X115916547Y-102243095D01*
X115868928Y-102385952D01*
X115297500Y-102957380D01*
X115916547Y-102957380D01*
X116297500Y-102052619D02*
X116345119Y-102005000D01*
X116440357Y-101957380D01*
X116678452Y-101957380D01*
X116773690Y-102005000D01*
X116821309Y-102052619D01*
X116868928Y-102147857D01*
X116868928Y-102243095D01*
X116821309Y-102385952D01*
X116249880Y-102957380D01*
X116868928Y-102957380D01*
X118011785Y-102909761D02*
X118154642Y-102957380D01*
X118392738Y-102957380D01*
X118487976Y-102909761D01*
X118535595Y-102862142D01*
X118583214Y-102766904D01*
X118583214Y-102671666D01*
X118535595Y-102576428D01*
X118487976Y-102528809D01*
X118392738Y-102481190D01*
X118202261Y-102433571D01*
X118107023Y-102385952D01*
X118059404Y-102338333D01*
X118011785Y-102243095D01*
X118011785Y-102147857D01*
X118059404Y-102052619D01*
X118107023Y-102005000D01*
X118202261Y-101957380D01*
X118440357Y-101957380D01*
X118583214Y-102005000D01*
X119011785Y-102957380D02*
X119011785Y-101957380D01*
X119011785Y-102433571D02*
X119583214Y-102433571D01*
X119583214Y-102957380D02*
X119583214Y-101957380D01*
X120630833Y-102957380D02*
X120297500Y-102481190D01*
X120059404Y-102957380D02*
X120059404Y-101957380D01*
X120440357Y-101957380D01*
X120535595Y-102005000D01*
X120583214Y-102052619D01*
X120630833Y-102147857D01*
X120630833Y-102290714D01*
X120583214Y-102385952D01*
X120535595Y-102433571D01*
X120440357Y-102481190D01*
X120059404Y-102481190D01*
X121059404Y-102957380D02*
X121059404Y-101957380D01*
X121392738Y-102671666D01*
X121726071Y-101957380D01*
X121726071Y-102957380D01*
X115668928Y-98628571D02*
X115335595Y-98628571D01*
X115335595Y-99152380D02*
X115335595Y-98152380D01*
X115811785Y-98152380D01*
X116764166Y-99152380D02*
X116430833Y-98676190D01*
X116192738Y-99152380D02*
X116192738Y-98152380D01*
X116573690Y-98152380D01*
X116668928Y-98200000D01*
X116716547Y-98247619D01*
X116764166Y-98342857D01*
X116764166Y-98485714D01*
X116716547Y-98580952D01*
X116668928Y-98628571D01*
X116573690Y-98676190D01*
X116192738Y-98676190D01*
X117764166Y-99057142D02*
X117716547Y-99104761D01*
X117573690Y-99152380D01*
X117478452Y-99152380D01*
X117335595Y-99104761D01*
X117240357Y-99009523D01*
X117192738Y-98914285D01*
X117145119Y-98723809D01*
X117145119Y-98580952D01*
X117192738Y-98390476D01*
X117240357Y-98295238D01*
X117335595Y-98200000D01*
X117478452Y-98152380D01*
X117573690Y-98152380D01*
X117716547Y-98200000D01*
X117764166Y-98247619D01*
X118145119Y-98247619D02*
X118192738Y-98200000D01*
X118287976Y-98152380D01*
X118526071Y-98152380D01*
X118621309Y-98200000D01*
X118668928Y-98247619D01*
X118716547Y-98342857D01*
X118716547Y-98438095D01*
X118668928Y-98580952D01*
X118097500Y-99152380D01*
X118716547Y-99152380D01*
X119573690Y-98485714D02*
X119573690Y-99152380D01*
X119335595Y-98104761D02*
X119097500Y-98819047D01*
X119716547Y-98819047D01*
X120526071Y-98152380D02*
X120335595Y-98152380D01*
X120240357Y-98200000D01*
X120192738Y-98247619D01*
X120097500Y-98390476D01*
X120049880Y-98580952D01*
X120049880Y-98961904D01*
X120097500Y-99057142D01*
X120145119Y-99104761D01*
X120240357Y-99152380D01*
X120430833Y-99152380D01*
X120526071Y-99104761D01*
X120573690Y-99057142D01*
X120621309Y-98961904D01*
X120621309Y-98723809D01*
X120573690Y-98628571D01*
X120526071Y-98580952D01*
X120430833Y-98533333D01*
X120240357Y-98533333D01*
X120145119Y-98580952D01*
X120097500Y-98628571D01*
X120049880Y-98723809D01*
X121192738Y-98580952D02*
X121097500Y-98533333D01*
X121049880Y-98485714D01*
X121002261Y-98390476D01*
X121002261Y-98342857D01*
X121049880Y-98247619D01*
X121097500Y-98200000D01*
X121192738Y-98152380D01*
X121383214Y-98152380D01*
X121478452Y-98200000D01*
X121526071Y-98247619D01*
X121573690Y-98342857D01*
X121573690Y-98390476D01*
X121526071Y-98485714D01*
X121478452Y-98533333D01*
X121383214Y-98580952D01*
X121192738Y-98580952D01*
X121097500Y-98628571D01*
X121049880Y-98676190D01*
X121002261Y-98771428D01*
X121002261Y-98961904D01*
X121049880Y-99057142D01*
X121097500Y-99104761D01*
X121192738Y-99152380D01*
X121383214Y-99152380D01*
X121478452Y-99104761D01*
X121526071Y-99057142D01*
X121573690Y-98961904D01*
X121573690Y-98771428D01*
X121526071Y-98676190D01*
X121478452Y-98628571D01*
X121383214Y-98580952D01*
%TO.C,R1*%
X124133333Y-93152380D02*
X123800000Y-92676190D01*
X123561904Y-93152380D02*
X123561904Y-92152380D01*
X123942857Y-92152380D01*
X124038095Y-92200000D01*
X124085714Y-92247619D01*
X124133333Y-92342857D01*
X124133333Y-92485714D01*
X124085714Y-92580952D01*
X124038095Y-92628571D01*
X123942857Y-92676190D01*
X123561904Y-92676190D01*
X125085714Y-93152380D02*
X124514285Y-93152380D01*
X124800000Y-93152380D02*
X124800000Y-92152380D01*
X124704761Y-92295238D01*
X124609523Y-92390476D01*
X124514285Y-92438095D01*
%TO.C,X3*%
X135390476Y-117652380D02*
X136057142Y-118652380D01*
X136057142Y-117652380D02*
X135390476Y-118652380D01*
X136342857Y-117652380D02*
X136961904Y-117652380D01*
X136628571Y-118033333D01*
X136771428Y-118033333D01*
X136866666Y-118080952D01*
X136914285Y-118128571D01*
X136961904Y-118223809D01*
X136961904Y-118461904D01*
X136914285Y-118557142D01*
X136866666Y-118604761D01*
X136771428Y-118652380D01*
X136485714Y-118652380D01*
X136390476Y-118604761D01*
X136342857Y-118557142D01*
%TO.C,X2*%
X101490476Y-117652380D02*
X102157142Y-118652380D01*
X102157142Y-117652380D02*
X101490476Y-118652380D01*
X102490476Y-117747619D02*
X102538095Y-117700000D01*
X102633333Y-117652380D01*
X102871428Y-117652380D01*
X102966666Y-117700000D01*
X103014285Y-117747619D01*
X103061904Y-117842857D01*
X103061904Y-117938095D01*
X103014285Y-118080952D01*
X102442857Y-118652380D01*
X103061904Y-118652380D01*
%TO.C,X1*%
X96147619Y-104590476D02*
X95147619Y-105257142D01*
X96147619Y-105257142D02*
X95147619Y-104590476D01*
X95147619Y-106161904D02*
X95147619Y-105590476D01*
X95147619Y-105876190D02*
X96147619Y-105876190D01*
X96004761Y-105780952D01*
X95909523Y-105685714D01*
X95861904Y-105590476D01*
%TO.C,X4*%
X141952380Y-88409523D02*
X142952380Y-87742857D01*
X141952380Y-87742857D02*
X142952380Y-88409523D01*
X142285714Y-86933333D02*
X142952380Y-86933333D01*
X141904761Y-87171428D02*
X142619047Y-87409523D01*
X142619047Y-86790476D01*
%TO.C,TP1*%
X98238095Y-109652380D02*
X98809523Y-109652380D01*
X98523809Y-110652380D02*
X98523809Y-109652380D01*
X99142857Y-110652380D02*
X99142857Y-109652380D01*
X99523809Y-109652380D01*
X99619047Y-109700000D01*
X99666666Y-109747619D01*
X99714285Y-109842857D01*
X99714285Y-109985714D01*
X99666666Y-110080952D01*
X99619047Y-110128571D01*
X99523809Y-110176190D01*
X99142857Y-110176190D01*
X100666666Y-110652380D02*
X100095238Y-110652380D01*
X100380952Y-110652380D02*
X100380952Y-109652380D01*
X100285714Y-109795238D01*
X100190476Y-109890476D01*
X100095238Y-109938095D01*
%TO.C,J1*%
X130866666Y-86152380D02*
X130866666Y-86866666D01*
X130819047Y-87009523D01*
X130723809Y-87104761D01*
X130580952Y-87152380D01*
X130485714Y-87152380D01*
X131866666Y-87152380D02*
X131295238Y-87152380D01*
X131580952Y-87152380D02*
X131580952Y-86152380D01*
X131485714Y-86295238D01*
X131390476Y-86390476D01*
X131295238Y-86438095D01*
%TO.C,R2*%
X129533333Y-96752380D02*
X129200000Y-96276190D01*
X128961904Y-96752380D02*
X128961904Y-95752380D01*
X129342857Y-95752380D01*
X129438095Y-95800000D01*
X129485714Y-95847619D01*
X129533333Y-95942857D01*
X129533333Y-96085714D01*
X129485714Y-96180952D01*
X129438095Y-96228571D01*
X129342857Y-96276190D01*
X128961904Y-96276190D01*
X129914285Y-95847619D02*
X129961904Y-95800000D01*
X130057142Y-95752380D01*
X130295238Y-95752380D01*
X130390476Y-95800000D01*
X130438095Y-95847619D01*
X130485714Y-95942857D01*
X130485714Y-96038095D01*
X130438095Y-96180952D01*
X129866666Y-96752380D01*
X130485714Y-96752380D01*
%TO.C,TP2*%
X98338095Y-112352380D02*
X98909523Y-112352380D01*
X98623809Y-113352380D02*
X98623809Y-112352380D01*
X99242857Y-113352380D02*
X99242857Y-112352380D01*
X99623809Y-112352380D01*
X99719047Y-112400000D01*
X99766666Y-112447619D01*
X99814285Y-112542857D01*
X99814285Y-112685714D01*
X99766666Y-112780952D01*
X99719047Y-112828571D01*
X99623809Y-112876190D01*
X99242857Y-112876190D01*
X100195238Y-112447619D02*
X100242857Y-112400000D01*
X100338095Y-112352380D01*
X100576190Y-112352380D01*
X100671428Y-112400000D01*
X100719047Y-112447619D01*
X100766666Y-112542857D01*
X100766666Y-112638095D01*
X100719047Y-112780952D01*
X100147619Y-113352380D01*
X100766666Y-113352380D01*
D11*
%TO.C,R1*%
X126935000Y-94027064D02*
X126935000Y-93572936D01*
X125465000Y-94027064D02*
X125465000Y-93572936D01*
%TO.C,X3*%
X119700000Y-118705000D02*
X135100000Y-118705000D01*
X135100000Y-118705000D02*
X135100000Y-106705000D01*
X135100000Y-106705000D02*
X119700000Y-106705000D01*
X119700000Y-106705000D02*
X119700000Y-118705000D01*
%TO.C,X2*%
X103350000Y-118705000D02*
X118750000Y-118705000D01*
X118750000Y-118705000D02*
X118750000Y-106705000D01*
X118750000Y-106705000D02*
X103350000Y-106705000D01*
X103350000Y-106705000D02*
X103350000Y-118705000D01*
%TO.C,X1*%
X95000000Y-88650000D02*
X107000000Y-88650000D01*
X107000000Y-88650000D02*
X107000000Y-104050000D01*
X107000000Y-104050000D02*
X95000000Y-104050000D01*
X95000000Y-104050000D02*
X95000000Y-88650000D01*
%TO.C,G\u002A\u002A\u002A*%
G36*
X120513529Y-93587044D02*
G01*
X120627994Y-93591972D01*
X120695237Y-93601824D01*
X120708740Y-93614482D01*
X120668515Y-93632057D01*
X120585846Y-93643572D01*
X120515173Y-93646192D01*
X120383659Y-93652761D01*
X120203859Y-93671233D01*
X119989396Y-93699756D01*
X119753894Y-93736481D01*
X119510978Y-93779556D01*
X119455456Y-93790173D01*
X119321232Y-93815901D01*
X119233459Y-93829074D01*
X119176174Y-93828417D01*
X119133419Y-93812651D01*
X119089233Y-93780499D01*
X119062668Y-93758740D01*
X118970405Y-93683306D01*
X119110234Y-93666828D01*
X119315192Y-93645151D01*
X119532945Y-93626433D01*
X119754917Y-93610953D01*
X119972535Y-93598994D01*
X120177225Y-93590835D01*
X120360414Y-93586758D01*
X120513529Y-93587044D01*
G37*
G36*
X116142447Y-95852201D02*
G01*
X116212909Y-95863295D01*
X116329045Y-95875428D01*
X116473168Y-95886940D01*
X116590795Y-95894266D01*
X116746951Y-95903776D01*
X116853619Y-95914330D01*
X116924693Y-95929251D01*
X116974067Y-95951860D01*
X117015632Y-95985478D01*
X117029621Y-95999171D01*
X117079776Y-96062010D01*
X117097002Y-96110599D01*
X117094695Y-96118085D01*
X117052390Y-96136206D01*
X116965036Y-96145402D01*
X116850450Y-96145105D01*
X116726450Y-96134750D01*
X116697379Y-96130722D01*
X116521209Y-96092148D01*
X116353022Y-96034097D01*
X116214444Y-95964848D01*
X116157629Y-95924087D01*
X116047316Y-95829352D01*
X116142447Y-95852201D01*
G37*
G36*
X119773233Y-93947067D02*
G01*
X119910730Y-93952404D01*
X120031621Y-93961349D01*
X120119947Y-93973534D01*
X120158521Y-93987079D01*
X120169023Y-94009359D01*
X120138199Y-94021695D01*
X120056856Y-94026547D01*
X120009526Y-94026942D01*
X119869146Y-94030427D01*
X119709184Y-94039148D01*
X119611253Y-94046967D01*
X119480632Y-94054394D01*
X119404317Y-94046030D01*
X119378178Y-94028777D01*
X119369540Y-93981402D01*
X119376355Y-93969114D01*
X119420691Y-93956359D01*
X119512254Y-93948678D01*
X119635088Y-93945702D01*
X119773233Y-93947067D01*
G37*
G36*
X117080119Y-94206077D02*
G01*
X117266595Y-93990763D01*
X117495813Y-93816639D01*
X117622525Y-93748529D01*
X117877894Y-93659910D01*
X118149812Y-93622431D01*
X118425671Y-93634375D01*
X118692865Y-93694023D01*
X118938788Y-93799657D01*
X119150834Y-93949562D01*
X119160158Y-93958038D01*
X119369832Y-94190438D01*
X119521660Y-94446625D01*
X119614415Y-94722625D01*
X119646871Y-95014464D01*
X119617802Y-95318168D01*
X119602047Y-95390262D01*
X119508848Y-95647122D01*
X119364851Y-95876312D01*
X119178424Y-96072996D01*
X118957936Y-96232337D01*
X118711758Y-96349496D01*
X118448259Y-96419637D01*
X118175807Y-96437923D01*
X117902773Y-96399516D01*
X117870662Y-96390950D01*
X117575424Y-96279540D01*
X117326184Y-96125399D01*
X117124849Y-95931020D01*
X116973328Y-95698897D01*
X116873529Y-95431521D01*
X116827362Y-95131387D01*
X116824220Y-95023931D01*
X116854223Y-94730183D01*
X116857642Y-94719356D01*
X117627944Y-94719356D01*
X117634841Y-94783793D01*
X117646484Y-94800963D01*
X117706746Y-94843031D01*
X117743821Y-94851186D01*
X117809423Y-94828312D01*
X117841158Y-94800963D01*
X117862994Y-94736574D01*
X117834432Y-94678892D01*
X117767303Y-94646861D01*
X117743821Y-94645069D01*
X117668214Y-94666798D01*
X117627944Y-94719356D01*
X116857642Y-94719356D01*
X116941092Y-94455058D01*
X117080119Y-94206077D01*
G37*
G36*
X120227634Y-93175160D02*
G01*
X120549354Y-93195246D01*
X120828638Y-93231218D01*
X120968160Y-93255652D01*
X121082738Y-93277497D01*
X121159029Y-93294096D01*
X121183677Y-93301946D01*
X121161392Y-93306648D01*
X121090418Y-93306924D01*
X120985332Y-93302779D01*
X120968648Y-93301842D01*
X120726491Y-93298711D01*
X120440713Y-93313015D01*
X120128084Y-93342829D01*
X119805376Y-93386227D01*
X119489361Y-93441283D01*
X119202497Y-93504649D01*
X119088544Y-93532387D01*
X118986995Y-93555968D01*
X118943833Y-93565324D01*
X118864235Y-93584041D01*
X118816991Y-93598159D01*
X118755679Y-93596049D01*
X118726842Y-93582924D01*
X118659482Y-93559025D01*
X118593944Y-93551547D01*
X118514888Y-93543397D01*
X118491175Y-93521951D01*
X118516764Y-93489856D01*
X118585616Y-93449762D01*
X118691690Y-93404316D01*
X118828945Y-93356167D01*
X118991341Y-93307963D01*
X119172838Y-93262354D01*
X119329003Y-93229266D01*
X119596295Y-93192142D01*
X119902893Y-93174116D01*
X120227634Y-93175160D01*
G37*
G36*
X119487270Y-95953121D02*
G01*
X119508075Y-96004896D01*
X119543384Y-96050559D01*
X119629779Y-96144312D01*
X119714021Y-96244918D01*
X119804288Y-96363249D01*
X119908760Y-96510174D01*
X120035617Y-96696563D01*
X120084506Y-96769663D01*
X120184250Y-96917382D01*
X120273212Y-97045563D01*
X120344981Y-97145253D01*
X120393145Y-97207493D01*
X120409833Y-97224178D01*
X120437290Y-97260575D01*
X120439201Y-97275789D01*
X120461461Y-97328970D01*
X120486767Y-97356305D01*
X120526630Y-97402080D01*
X120534333Y-97423608D01*
X120504570Y-97433803D01*
X120423057Y-97442178D01*
X120301453Y-97447988D01*
X120151418Y-97450484D01*
X120114170Y-97450512D01*
X119694008Y-97449587D01*
X119551311Y-97254533D01*
X119480561Y-97156296D01*
X119424738Y-97075959D01*
X119394465Y-97028861D01*
X119392759Y-97025557D01*
X119367178Y-96980665D01*
X119319805Y-96904357D01*
X119289701Y-96857497D01*
X119239685Y-96777327D01*
X119208141Y-96720543D01*
X119202497Y-96705589D01*
X119185915Y-96671465D01*
X119146065Y-96608532D01*
X119097788Y-96538676D01*
X119055929Y-96483778D01*
X119041632Y-96468415D01*
X119016051Y-96427929D01*
X119003751Y-96399050D01*
X119007925Y-96354888D01*
X119058598Y-96305243D01*
X119122017Y-96264680D01*
X119226600Y-96189783D01*
X119332759Y-96093130D01*
X119373323Y-96048651D01*
X119434204Y-95982378D01*
X119475588Y-95949448D01*
X119487270Y-95953121D01*
G37*
G36*
X116693843Y-95101334D02*
G01*
X116714751Y-95171814D01*
X116727230Y-95263709D01*
X116728656Y-95301983D01*
X116741537Y-95392614D01*
X116771969Y-95490934D01*
X116772513Y-95492245D01*
X116814074Y-95599236D01*
X116849034Y-95699438D01*
X116882132Y-95802497D01*
X116591566Y-95798086D01*
X116423506Y-95791105D01*
X116243689Y-95776657D01*
X116086569Y-95757623D01*
X116063171Y-95753901D01*
X115870675Y-95718702D01*
X115709061Y-95683219D01*
X115586736Y-95649697D01*
X115512104Y-95620384D01*
X115492385Y-95601338D01*
X115515596Y-95586211D01*
X115537901Y-95591205D01*
X115620067Y-95600820D01*
X115740052Y-95587959D01*
X115883248Y-95557283D01*
X116035048Y-95513450D01*
X116180843Y-95461120D01*
X116306026Y-95404953D01*
X116395987Y-95349606D01*
X116434428Y-95305254D01*
X116470942Y-95266853D01*
X116486726Y-95263330D01*
X116526904Y-95239155D01*
X116578352Y-95179920D01*
X116586392Y-95168290D01*
X116633253Y-95105630D01*
X116666613Y-95074127D01*
X116669898Y-95073250D01*
X116693843Y-95101334D01*
G37*
G36*
X121834457Y-97420721D02*
G01*
X121808758Y-97447976D01*
X121786892Y-97451436D01*
X121744584Y-97444651D01*
X121739326Y-97438973D01*
X121764122Y-97418526D01*
X121786892Y-97408258D01*
X121827724Y-97407599D01*
X121834457Y-97420721D01*
G37*
%TO.C,X4*%
X143000000Y-104050000D02*
X131000000Y-104050000D01*
X131000000Y-104050000D02*
X131000000Y-88650000D01*
X131000000Y-88650000D02*
X143000000Y-88650000D01*
X143000000Y-88650000D02*
X143000000Y-104050000D01*
%TO.C,TP1*%
X97850000Y-110200000D02*
G75*
G03*
X97850000Y-110200000I-950000J0D01*
G01*
%TO.C,J1*%
X130130000Y-91392500D02*
X130130000Y-86192500D01*
X124930000Y-91392500D02*
X124930000Y-90062500D01*
X127530000Y-91392500D02*
X127530000Y-88792500D01*
X124930000Y-88792500D02*
X124930000Y-86192500D01*
X127530000Y-91392500D02*
X130130000Y-91392500D01*
X127530000Y-88792500D02*
X124930000Y-88792500D01*
X126260000Y-91392500D02*
X124930000Y-91392500D01*
X124930000Y-86192500D02*
X130130000Y-86192500D01*
%TO.C,R2*%
X129535000Y-94027064D02*
X129535000Y-93572936D01*
X128065000Y-94027064D02*
X128065000Y-93572936D01*
%TO.C,TP2*%
X97850000Y-112900000D02*
G75*
G03*
X97850000Y-112900000I-950000J0D01*
G01*
%TD*%
M02*
