%TF.GenerationSoftware,KiCad,Pcbnew,(6.0.8-1)-1*%
%TF.CreationDate,2022-12-26T11:19:24-06:00*%
%TF.ProjectId,CAN Distribution Board With Power v2,43414e20-4469-4737-9472-69627574696f,rev?*%
%TF.SameCoordinates,Original*%
%TF.FileFunction,Copper,L2,Bot*%
%TF.FilePolarity,Positive*%
%FSLAX46Y46*%
G04 Gerber Fmt 4.6, Leading zero omitted, Abs format (unit mm)*
G04 Created by KiCad (PCBNEW (6.0.8-1)-1) date 2022-12-26 11:19:24*
%MOMM*%
%LPD*%
G01*
G04 APERTURE LIST*
%TA.AperFunction,ComponentPad*%
%ADD10C,1.800000*%
%TD*%
%TA.AperFunction,ComponentPad*%
%ADD11C,4.400000*%
%TD*%
%TA.AperFunction,ComponentPad*%
%ADD12R,1.700000X1.700000*%
%TD*%
%TA.AperFunction,ComponentPad*%
%ADD13O,1.700000X1.700000*%
%TD*%
%TA.AperFunction,ViaPad*%
%ADD14C,0.800000*%
%TD*%
%TA.AperFunction,Conductor*%
%ADD15C,0.250000*%
%TD*%
%TA.AperFunction,Conductor*%
%ADD16C,0.750000*%
%TD*%
G04 APERTURE END LIST*
D10*
%TO.P,X3,1,A*%
%TO.N,/CAN_H*%
X122850000Y-109005000D03*
%TO.P,X3,2,B*%
%TO.N,/CAN_L*%
X126350000Y-114005000D03*
%TO.P,X3,3,C*%
%TO.N,/CAN_H*%
X129850000Y-109005000D03*
%TO.P,X3,4,D*%
%TO.N,/CAN_L*%
X133350000Y-114005000D03*
%TD*%
%TO.P,X2,1,A*%
%TO.N,/CAN_H*%
X106500000Y-109005000D03*
%TO.P,X2,2,B*%
%TO.N,/CAN_L*%
X110000000Y-114005000D03*
%TO.P,X2,3,C*%
%TO.N,+BATT*%
X113500000Y-109005000D03*
%TO.P,X2,4,D*%
%TO.N,GND*%
X117000000Y-114005000D03*
%TD*%
%TO.P,X1,1,A*%
%TO.N,/CAN_H*%
X104700000Y-91800000D03*
%TO.P,X1,2,B*%
%TO.N,/CAN_L*%
X99700000Y-95300000D03*
%TO.P,X1,3,C*%
%TO.N,+BATT*%
X104700000Y-98800000D03*
%TO.P,X1,4,D*%
%TO.N,GND*%
X99700000Y-102300000D03*
%TD*%
%TO.P,X4,1,A*%
%TO.N,/CAN_H*%
X133300000Y-100900000D03*
%TO.P,X4,2,B*%
%TO.N,/CAN_L*%
X138300000Y-97400000D03*
%TO.P,X4,3,C*%
%TO.N,+BATT*%
X133300000Y-93900000D03*
%TO.P,X4,4,D*%
%TO.N,GND*%
X138300000Y-90400000D03*
%TD*%
D11*
%TO.P,H2,1,1*%
%TO.N,unconnected-(H2-Pad1)*%
X141000000Y-117100000D03*
%TD*%
D12*
%TO.P,J1,1,Pin_1*%
%TO.N,Net-(J1-Pad1)*%
X126260000Y-90062500D03*
D13*
%TO.P,J1,2,Pin_2*%
%TO.N,/CAN_L*%
X126260000Y-87522500D03*
%TO.P,J1,3,Pin_3*%
X128800000Y-90062500D03*
%TO.P,J1,4,Pin_4*%
%TO.N,Net-(J1-Pad4)*%
X128800000Y-87522500D03*
%TD*%
D11*
%TO.P,H1,1,1*%
%TO.N,unconnected-(H1-Pad1)*%
X119000000Y-88100000D03*
%TD*%
%TO.P,H3,1,1*%
%TO.N,unconnected-(H3-Pad1)*%
X97000000Y-117100000D03*
%TD*%
D14*
%TO.N,/CAN_H*%
X98800000Y-110200000D03*
%TD*%
D15*
%TO.N,/CAN_H*%
X105305000Y-110200000D02*
X106500000Y-109005000D01*
X98800000Y-110200000D02*
X105305000Y-110200000D01*
D16*
%TO.N,+BATT*%
X104700000Y-102000000D02*
X111705000Y-109005000D01*
X104700000Y-98800000D02*
X104700000Y-102000000D01*
X111705000Y-109005000D02*
X113500000Y-109005000D01*
%TD*%
%TA.AperFunction,Conductor*%
%TO.N,GND*%
G36*
X117500316Y-85628502D02*
G01*
X117546809Y-85682158D01*
X117556913Y-85752432D01*
X117527419Y-85817012D01*
X117496618Y-85842785D01*
X117478074Y-85853817D01*
X117478068Y-85853821D01*
X117474814Y-85855757D01*
X117216244Y-86055243D01*
X116983513Y-86284347D01*
X116981149Y-86287314D01*
X116981146Y-86287317D01*
X116899083Y-86390300D01*
X116779991Y-86539751D01*
X116608626Y-86817757D01*
X116585869Y-86867121D01*
X116483942Y-87088220D01*
X116471902Y-87114336D01*
X116470741Y-87117940D01*
X116470741Y-87117941D01*
X116462196Y-87144477D01*
X116371797Y-87425192D01*
X116371079Y-87428903D01*
X116371078Y-87428907D01*
X116310482Y-87742105D01*
X116310481Y-87742114D01*
X116309763Y-87745824D01*
X116309496Y-87749600D01*
X116309495Y-87749605D01*
X116290396Y-88019357D01*
X116286698Y-88071585D01*
X116286887Y-88075377D01*
X116299443Y-88327588D01*
X116302936Y-88397759D01*
X116303577Y-88401490D01*
X116303578Y-88401498D01*
X116356718Y-88710755D01*
X116358241Y-88719619D01*
X116359329Y-88723258D01*
X116359330Y-88723261D01*
X116440114Y-88993381D01*
X116451814Y-89032504D01*
X116453327Y-89035975D01*
X116453329Y-89035981D01*
X116482184Y-89102184D01*
X116582297Y-89331881D01*
X116584220Y-89335152D01*
X116584222Y-89335156D01*
X116626584Y-89407215D01*
X116747802Y-89613414D01*
X116750103Y-89616429D01*
X116943631Y-89870012D01*
X116943636Y-89870017D01*
X116945931Y-89873025D01*
X117014870Y-89943792D01*
X117130510Y-90062500D01*
X117173814Y-90106953D01*
X117244935Y-90164238D01*
X117425196Y-90309431D01*
X117425201Y-90309435D01*
X117428149Y-90311809D01*
X117705253Y-90484627D01*
X118001112Y-90622903D01*
X118311440Y-90724634D01*
X118631742Y-90788346D01*
X118635514Y-90788633D01*
X118635522Y-90788634D01*
X118953602Y-90812829D01*
X118953607Y-90812829D01*
X118957379Y-90813116D01*
X119283633Y-90798586D01*
X119343425Y-90788634D01*
X119602037Y-90745590D01*
X119602042Y-90745589D01*
X119605778Y-90744967D01*
X119919149Y-90653034D01*
X119922616Y-90651544D01*
X119922620Y-90651543D01*
X120215721Y-90525616D01*
X120215723Y-90525615D01*
X120219205Y-90524119D01*
X120501601Y-90360091D01*
X120762245Y-90163324D01*
X120983838Y-89949708D01*
X120994632Y-89939303D01*
X120994635Y-89939300D01*
X120997363Y-89936670D01*
X121203549Y-89683410D01*
X121238371Y-89628220D01*
X121375788Y-89410428D01*
X121375790Y-89410425D01*
X121377815Y-89407215D01*
X121517638Y-89112084D01*
X121523017Y-89095961D01*
X121619790Y-88805897D01*
X121619792Y-88805891D01*
X121620992Y-88802293D01*
X121686381Y-88482329D01*
X121692294Y-88409637D01*
X121704798Y-88255899D01*
X121712856Y-88156826D01*
X121713451Y-88100000D01*
X121711510Y-88067796D01*
X121694026Y-87777793D01*
X121694026Y-87777789D01*
X121693798Y-87774015D01*
X121688650Y-87745824D01*
X121641781Y-87489195D01*
X124897251Y-87489195D01*
X124897548Y-87494348D01*
X124897548Y-87494351D01*
X124903011Y-87589090D01*
X124910110Y-87712215D01*
X124911247Y-87717261D01*
X124911248Y-87717267D01*
X124924037Y-87774015D01*
X124959222Y-87930139D01*
X125043266Y-88137116D01*
X125094019Y-88219938D01*
X125157291Y-88323188D01*
X125159987Y-88327588D01*
X125306250Y-88496438D01*
X125310230Y-88499742D01*
X125314981Y-88503687D01*
X125354616Y-88562590D01*
X125356113Y-88633571D01*
X125318997Y-88694093D01*
X125278725Y-88718612D01*
X125190095Y-88751838D01*
X125163295Y-88761885D01*
X125046739Y-88849239D01*
X124959385Y-88965795D01*
X124908255Y-89102184D01*
X124901500Y-89164366D01*
X124901500Y-90960634D01*
X124908255Y-91022816D01*
X124959385Y-91159205D01*
X125046739Y-91275761D01*
X125163295Y-91363115D01*
X125299684Y-91414245D01*
X125361866Y-91421000D01*
X127158134Y-91421000D01*
X127220316Y-91414245D01*
X127356705Y-91363115D01*
X127473261Y-91275761D01*
X127560615Y-91159205D01*
X127583701Y-91097623D01*
X127604598Y-91041882D01*
X127647240Y-90985118D01*
X127713802Y-90960418D01*
X127783150Y-90975626D01*
X127817817Y-91003614D01*
X127846250Y-91036438D01*
X128018126Y-91179132D01*
X128211000Y-91291838D01*
X128419692Y-91371530D01*
X128424760Y-91372561D01*
X128424763Y-91372562D01*
X128532017Y-91394383D01*
X128638597Y-91416067D01*
X128643772Y-91416257D01*
X128643774Y-91416257D01*
X128856673Y-91424064D01*
X128856677Y-91424064D01*
X128861837Y-91424253D01*
X128866957Y-91423597D01*
X128866959Y-91423597D01*
X129078288Y-91396525D01*
X129078289Y-91396525D01*
X129083416Y-91395868D01*
X129088366Y-91394383D01*
X129292429Y-91333161D01*
X129292434Y-91333159D01*
X129297384Y-91331674D01*
X129497994Y-91233396D01*
X129679860Y-91103673D01*
X129838096Y-90945989D01*
X129844078Y-90937665D01*
X129965435Y-90768777D01*
X129968453Y-90764577D01*
X130023056Y-90654097D01*
X130065136Y-90568953D01*
X130065137Y-90568951D01*
X130067430Y-90564311D01*
X130109222Y-90426757D01*
X130126273Y-90370638D01*
X136887893Y-90370638D01*
X136900627Y-90591468D01*
X136902061Y-90601670D01*
X136950685Y-90817439D01*
X136953773Y-90827292D01*
X137036986Y-91032220D01*
X137041634Y-91041421D01*
X137130097Y-91185781D01*
X137140553Y-91195242D01*
X137149331Y-91191458D01*
X137927979Y-90412811D01*
X137934356Y-90401132D01*
X138664408Y-90401132D01*
X138664539Y-90402966D01*
X138668790Y-90409580D01*
X139446307Y-91187096D01*
X139458313Y-91193652D01*
X139470052Y-91184684D01*
X139508010Y-91131859D01*
X139513321Y-91123020D01*
X139611318Y-90924737D01*
X139615117Y-90915142D01*
X139679415Y-90703517D01*
X139681594Y-90693436D01*
X139710702Y-90472338D01*
X139711221Y-90465663D01*
X139712744Y-90403364D01*
X139712550Y-90396646D01*
X139694279Y-90174400D01*
X139692596Y-90164238D01*
X139638710Y-89949708D01*
X139635389Y-89939953D01*
X139547193Y-89737118D01*
X139542315Y-89728020D01*
X139469224Y-89615038D01*
X139458538Y-89605835D01*
X139448973Y-89610238D01*
X138672021Y-90387189D01*
X138664408Y-90401132D01*
X137934356Y-90401132D01*
X137935592Y-90398868D01*
X137935461Y-90397034D01*
X137931210Y-90390420D01*
X137153862Y-89613073D01*
X137142330Y-89606776D01*
X137130048Y-89616399D01*
X137074467Y-89697877D01*
X137069379Y-89706833D01*
X136976252Y-89907459D01*
X136972689Y-89917146D01*
X136913581Y-90130280D01*
X136911650Y-90140400D01*
X136888145Y-90360349D01*
X136887893Y-90370638D01*
X130126273Y-90370638D01*
X130130865Y-90355523D01*
X130130865Y-90355521D01*
X130132370Y-90350569D01*
X130161529Y-90129090D01*
X130162070Y-90106953D01*
X130163074Y-90065865D01*
X130163074Y-90065861D01*
X130163156Y-90062500D01*
X130144852Y-89839861D01*
X130090431Y-89623202D01*
X130001354Y-89418340D01*
X129886441Y-89240711D01*
X137505508Y-89240711D01*
X137512251Y-89253040D01*
X138287189Y-90027979D01*
X138301132Y-90035592D01*
X138302966Y-90035461D01*
X138309580Y-90031210D01*
X139088994Y-89251795D01*
X139096011Y-89238944D01*
X139088237Y-89228274D01*
X139085902Y-89226430D01*
X139077320Y-89220729D01*
X138883678Y-89113833D01*
X138874272Y-89109606D01*
X138665772Y-89035772D01*
X138655809Y-89033140D01*
X138438047Y-88994350D01*
X138427796Y-88993381D01*
X138206616Y-88990679D01*
X138196332Y-88991399D01*
X137977693Y-89024855D01*
X137967666Y-89027244D01*
X137757426Y-89095961D01*
X137747916Y-89099958D01*
X137551725Y-89202089D01*
X137543007Y-89207578D01*
X137513961Y-89229386D01*
X137505508Y-89240711D01*
X129886441Y-89240711D01*
X129882822Y-89235117D01*
X129882820Y-89235114D01*
X129880014Y-89230777D01*
X129729670Y-89065551D01*
X129725619Y-89062352D01*
X129725615Y-89062348D01*
X129558414Y-88930300D01*
X129558410Y-88930298D01*
X129554359Y-88927098D01*
X129513053Y-88904296D01*
X129463084Y-88853864D01*
X129448312Y-88784421D01*
X129473428Y-88718016D01*
X129500780Y-88691409D01*
X129544603Y-88660150D01*
X129679860Y-88563673D01*
X129838096Y-88405989D01*
X129897594Y-88323189D01*
X129965435Y-88228777D01*
X129968453Y-88224577D01*
X129989320Y-88182357D01*
X130065136Y-88028953D01*
X130065137Y-88028951D01*
X130067430Y-88024311D01*
X130132370Y-87810569D01*
X130161529Y-87589090D01*
X130163156Y-87522500D01*
X130144852Y-87299861D01*
X130090431Y-87083202D01*
X130001354Y-86878340D01*
X129880014Y-86690777D01*
X129729670Y-86525551D01*
X129725619Y-86522352D01*
X129725615Y-86522348D01*
X129558414Y-86390300D01*
X129558410Y-86390298D01*
X129554359Y-86387098D01*
X129358789Y-86279138D01*
X129353920Y-86277414D01*
X129353916Y-86277412D01*
X129153087Y-86206295D01*
X129153083Y-86206294D01*
X129148212Y-86204569D01*
X129143119Y-86203662D01*
X129143116Y-86203661D01*
X128933373Y-86166300D01*
X128933367Y-86166299D01*
X128928284Y-86165394D01*
X128854452Y-86164492D01*
X128710081Y-86162728D01*
X128710079Y-86162728D01*
X128704911Y-86162665D01*
X128484091Y-86196455D01*
X128271756Y-86265857D01*
X128073607Y-86369007D01*
X128069474Y-86372110D01*
X128069471Y-86372112D01*
X128045247Y-86390300D01*
X127894965Y-86503135D01*
X127740629Y-86664638D01*
X127633201Y-86822121D01*
X127578293Y-86867121D01*
X127507768Y-86875292D01*
X127444021Y-86844038D01*
X127423324Y-86819554D01*
X127342822Y-86695117D01*
X127342820Y-86695114D01*
X127340014Y-86690777D01*
X127189670Y-86525551D01*
X127185619Y-86522352D01*
X127185615Y-86522348D01*
X127018414Y-86390300D01*
X127018410Y-86390298D01*
X127014359Y-86387098D01*
X126818789Y-86279138D01*
X126813920Y-86277414D01*
X126813916Y-86277412D01*
X126613087Y-86206295D01*
X126613083Y-86206294D01*
X126608212Y-86204569D01*
X126603119Y-86203662D01*
X126603116Y-86203661D01*
X126393373Y-86166300D01*
X126393367Y-86166299D01*
X126388284Y-86165394D01*
X126314452Y-86164492D01*
X126170081Y-86162728D01*
X126170079Y-86162728D01*
X126164911Y-86162665D01*
X125944091Y-86196455D01*
X125731756Y-86265857D01*
X125533607Y-86369007D01*
X125529474Y-86372110D01*
X125529471Y-86372112D01*
X125505247Y-86390300D01*
X125354965Y-86503135D01*
X125200629Y-86664638D01*
X125074743Y-86849180D01*
X124980688Y-87051805D01*
X124920989Y-87267070D01*
X124897251Y-87489195D01*
X121641781Y-87489195D01*
X121635805Y-87456473D01*
X121635804Y-87456469D01*
X121635125Y-87452751D01*
X121627722Y-87428907D01*
X121539404Y-87144477D01*
X121538282Y-87140863D01*
X121404670Y-86842869D01*
X121236226Y-86563084D01*
X121233899Y-86560100D01*
X121233894Y-86560093D01*
X121037726Y-86308558D01*
X121037724Y-86308556D01*
X121035390Y-86305563D01*
X120805070Y-86074034D01*
X120548603Y-85871852D01*
X120522184Y-85855757D01*
X120499774Y-85842105D01*
X120452005Y-85789582D01*
X120440216Y-85719571D01*
X120468148Y-85654300D01*
X120526934Y-85614492D01*
X120565328Y-85608500D01*
X143365500Y-85608500D01*
X143433621Y-85628502D01*
X143480114Y-85682158D01*
X143491500Y-85734500D01*
X143491500Y-115533521D01*
X143471498Y-115601642D01*
X143417842Y-115648135D01*
X143347568Y-115658239D01*
X143282988Y-115628745D01*
X143257557Y-115598515D01*
X143236226Y-115563084D01*
X143233899Y-115560100D01*
X143233894Y-115560093D01*
X143037726Y-115308558D01*
X143037724Y-115308556D01*
X143035390Y-115305563D01*
X142805070Y-115074034D01*
X142548603Y-114871852D01*
X142269705Y-114701945D01*
X142266261Y-114700379D01*
X142266257Y-114700377D01*
X142138384Y-114642237D01*
X141972414Y-114566775D01*
X141661037Y-114468300D01*
X141417161Y-114422439D01*
X141343809Y-114408645D01*
X141343807Y-114408645D01*
X141340086Y-114407945D01*
X141014208Y-114386586D01*
X141010428Y-114386794D01*
X141010427Y-114386794D01*
X140912897Y-114392162D01*
X140688124Y-114404532D01*
X140684397Y-114405193D01*
X140684393Y-114405193D01*
X140587083Y-114422439D01*
X140366557Y-114461522D01*
X140362941Y-114462624D01*
X140362933Y-114462626D01*
X140057789Y-114555627D01*
X140054167Y-114556731D01*
X139755477Y-114688781D01*
X139730041Y-114703914D01*
X139478074Y-114853817D01*
X139478068Y-114853821D01*
X139474814Y-114855757D01*
X139216244Y-115055243D01*
X139115892Y-115154031D01*
X138991000Y-115276977D01*
X138983513Y-115284347D01*
X138981149Y-115287314D01*
X138981146Y-115287317D01*
X138878431Y-115416216D01*
X138779991Y-115539751D01*
X138608626Y-115817757D01*
X138471902Y-116114336D01*
X138470741Y-116117940D01*
X138470741Y-116117941D01*
X138462196Y-116144477D01*
X138371797Y-116425192D01*
X138371079Y-116428903D01*
X138371078Y-116428907D01*
X138310482Y-116742105D01*
X138310481Y-116742114D01*
X138309763Y-116745824D01*
X138286698Y-117071585D01*
X138302936Y-117397759D01*
X138303577Y-117401490D01*
X138303578Y-117401498D01*
X138318109Y-117486060D01*
X138358241Y-117719619D01*
X138451814Y-118032504D01*
X138582297Y-118331881D01*
X138584220Y-118335152D01*
X138584222Y-118335156D01*
X138626584Y-118407215D01*
X138747802Y-118613414D01*
X138750103Y-118616429D01*
X138943631Y-118870012D01*
X138943636Y-118870017D01*
X138945931Y-118873025D01*
X139173814Y-119106953D01*
X139246635Y-119165607D01*
X139425196Y-119309431D01*
X139425201Y-119309435D01*
X139428149Y-119311809D01*
X139431371Y-119313818D01*
X139431376Y-119313822D01*
X139503156Y-119358588D01*
X139550373Y-119411607D01*
X139561429Y-119481738D01*
X139532815Y-119546713D01*
X139473615Y-119585903D01*
X139436480Y-119591500D01*
X98570222Y-119591500D01*
X98502101Y-119571498D01*
X98455608Y-119517842D01*
X98445504Y-119447568D01*
X98474998Y-119382988D01*
X98499890Y-119361085D01*
X98501601Y-119360091D01*
X98504623Y-119357810D01*
X98504627Y-119357807D01*
X98759221Y-119165607D01*
X98759222Y-119165606D01*
X98762245Y-119163324D01*
X98997363Y-118936670D01*
X99203549Y-118683410D01*
X99255429Y-118601185D01*
X99375788Y-118410428D01*
X99375790Y-118410425D01*
X99377815Y-118407215D01*
X99517638Y-118112084D01*
X99544188Y-118032504D01*
X99619790Y-117805897D01*
X99619792Y-117805891D01*
X99620992Y-117802293D01*
X99686381Y-117482329D01*
X99692956Y-117401498D01*
X99712674Y-117159061D01*
X99712856Y-117156826D01*
X99713451Y-117100000D01*
X99711510Y-117067796D01*
X99694026Y-116777793D01*
X99694026Y-116777789D01*
X99693798Y-116774015D01*
X99688650Y-116745824D01*
X99635805Y-116456473D01*
X99635804Y-116456469D01*
X99635125Y-116452751D01*
X99627722Y-116428907D01*
X99539404Y-116144477D01*
X99538282Y-116140863D01*
X99404670Y-115842869D01*
X99236226Y-115563084D01*
X99233899Y-115560100D01*
X99233894Y-115560093D01*
X99037726Y-115308558D01*
X99037724Y-115308556D01*
X99035390Y-115305563D01*
X98805070Y-115074034D01*
X98548603Y-114871852D01*
X98269705Y-114701945D01*
X98266261Y-114700379D01*
X98266257Y-114700377D01*
X98138384Y-114642237D01*
X97972414Y-114566775D01*
X97661037Y-114468300D01*
X97417161Y-114422439D01*
X97343809Y-114408645D01*
X97343807Y-114408645D01*
X97340086Y-114407945D01*
X97014208Y-114386586D01*
X97010428Y-114386794D01*
X97010427Y-114386794D01*
X96912897Y-114392162D01*
X96688124Y-114404532D01*
X96684397Y-114405193D01*
X96684393Y-114405193D01*
X96587083Y-114422439D01*
X96366557Y-114461522D01*
X96362941Y-114462624D01*
X96362933Y-114462626D01*
X96057789Y-114555627D01*
X96054167Y-114556731D01*
X95755477Y-114688781D01*
X95730041Y-114703914D01*
X95478074Y-114853817D01*
X95478068Y-114853821D01*
X95474814Y-114855757D01*
X95216244Y-115055243D01*
X95115892Y-115154031D01*
X94991000Y-115276977D01*
X94983513Y-115284347D01*
X94981149Y-115287314D01*
X94981146Y-115287317D01*
X94878431Y-115416216D01*
X94779991Y-115539751D01*
X94778000Y-115542981D01*
X94741760Y-115601773D01*
X94688988Y-115649266D01*
X94618916Y-115660690D01*
X94553792Y-115632416D01*
X94514293Y-115573422D01*
X94508500Y-115535657D01*
X94508500Y-113970469D01*
X108587095Y-113970469D01*
X108587392Y-113975622D01*
X108587392Y-113975625D01*
X108600129Y-114196529D01*
X108600427Y-114201697D01*
X108601564Y-114206743D01*
X108601565Y-114206749D01*
X108633741Y-114349523D01*
X108651346Y-114427642D01*
X108653288Y-114432424D01*
X108653289Y-114432428D01*
X108736447Y-114637220D01*
X108738484Y-114642237D01*
X108859501Y-114839719D01*
X109011147Y-115014784D01*
X109189349Y-115162730D01*
X109389322Y-115279584D01*
X109394147Y-115281426D01*
X109394148Y-115281427D01*
X109450296Y-115302868D01*
X109605694Y-115362209D01*
X109610760Y-115363240D01*
X109610761Y-115363240D01*
X109663846Y-115374040D01*
X109832656Y-115408385D01*
X109963324Y-115413176D01*
X110058949Y-115416683D01*
X110058953Y-115416683D01*
X110064113Y-115416872D01*
X110069233Y-115416216D01*
X110069235Y-115416216D01*
X110142291Y-115406857D01*
X110293847Y-115387442D01*
X110298795Y-115385957D01*
X110298802Y-115385956D01*
X110510747Y-115322369D01*
X110515690Y-115320886D01*
X110540855Y-115308558D01*
X110719049Y-115221262D01*
X110719052Y-115221260D01*
X110723684Y-115218991D01*
X110797406Y-115166406D01*
X116203423Y-115166406D01*
X116208704Y-115173461D01*
X116385080Y-115276527D01*
X116394363Y-115280974D01*
X116601003Y-115359883D01*
X116610901Y-115362759D01*
X116827653Y-115406857D01*
X116837883Y-115408076D01*
X117058914Y-115416182D01*
X117069223Y-115415714D01*
X117288623Y-115387608D01*
X117298688Y-115385468D01*
X117510557Y-115321905D01*
X117520152Y-115318144D01*
X117718778Y-115220838D01*
X117727636Y-115215559D01*
X117785097Y-115174572D01*
X117793497Y-115163874D01*
X117786510Y-115150721D01*
X117012811Y-114377021D01*
X116998868Y-114369408D01*
X116997034Y-114369539D01*
X116990420Y-114373790D01*
X116210180Y-115154031D01*
X116203423Y-115166406D01*
X110797406Y-115166406D01*
X110912243Y-115084494D01*
X111076303Y-114921005D01*
X111211458Y-114732917D01*
X111213879Y-114728020D01*
X111311784Y-114529922D01*
X111311785Y-114529920D01*
X111314078Y-114525280D01*
X111381408Y-114303671D01*
X111411640Y-114074041D01*
X111413327Y-114005000D01*
X111410913Y-113975638D01*
X115587893Y-113975638D01*
X115600627Y-114196468D01*
X115602061Y-114206670D01*
X115650685Y-114422439D01*
X115653773Y-114432292D01*
X115736986Y-114637220D01*
X115741634Y-114646421D01*
X115830097Y-114790781D01*
X115840553Y-114800242D01*
X115849331Y-114796458D01*
X116627979Y-114017811D01*
X116634356Y-114006132D01*
X117364408Y-114006132D01*
X117364539Y-114007966D01*
X117368790Y-114014580D01*
X118146307Y-114792096D01*
X118158313Y-114798652D01*
X118170052Y-114789684D01*
X118208010Y-114736859D01*
X118213321Y-114728020D01*
X118311318Y-114529737D01*
X118315117Y-114520142D01*
X118379415Y-114308517D01*
X118381594Y-114298436D01*
X118410702Y-114077338D01*
X118411221Y-114070663D01*
X118412744Y-114008364D01*
X118412550Y-114001646D01*
X118409987Y-113970469D01*
X124937095Y-113970469D01*
X124937392Y-113975622D01*
X124937392Y-113975625D01*
X124950129Y-114196529D01*
X124950427Y-114201697D01*
X124951564Y-114206743D01*
X124951565Y-114206749D01*
X124983741Y-114349523D01*
X125001346Y-114427642D01*
X125003288Y-114432424D01*
X125003289Y-114432428D01*
X125086447Y-114637220D01*
X125088484Y-114642237D01*
X125209501Y-114839719D01*
X125361147Y-115014784D01*
X125539349Y-115162730D01*
X125739322Y-115279584D01*
X125744147Y-115281426D01*
X125744148Y-115281427D01*
X125800296Y-115302868D01*
X125955694Y-115362209D01*
X125960760Y-115363240D01*
X125960761Y-115363240D01*
X126013846Y-115374040D01*
X126182656Y-115408385D01*
X126313324Y-115413176D01*
X126408949Y-115416683D01*
X126408953Y-115416683D01*
X126414113Y-115416872D01*
X126419233Y-115416216D01*
X126419235Y-115416216D01*
X126492291Y-115406857D01*
X126643847Y-115387442D01*
X126648795Y-115385957D01*
X126648802Y-115385956D01*
X126860747Y-115322369D01*
X126865690Y-115320886D01*
X126890855Y-115308558D01*
X127069049Y-115221262D01*
X127069052Y-115221260D01*
X127073684Y-115218991D01*
X127262243Y-115084494D01*
X127426303Y-114921005D01*
X127561458Y-114732917D01*
X127563879Y-114728020D01*
X127661784Y-114529922D01*
X127661785Y-114529920D01*
X127664078Y-114525280D01*
X127731408Y-114303671D01*
X127761640Y-114074041D01*
X127763327Y-114005000D01*
X127760488Y-113970469D01*
X131937095Y-113970469D01*
X131937392Y-113975622D01*
X131937392Y-113975625D01*
X131950129Y-114196529D01*
X131950427Y-114201697D01*
X131951564Y-114206743D01*
X131951565Y-114206749D01*
X131983741Y-114349523D01*
X132001346Y-114427642D01*
X132003288Y-114432424D01*
X132003289Y-114432428D01*
X132086447Y-114637220D01*
X132088484Y-114642237D01*
X132209501Y-114839719D01*
X132361147Y-115014784D01*
X132539349Y-115162730D01*
X132739322Y-115279584D01*
X132744147Y-115281426D01*
X132744148Y-115281427D01*
X132800296Y-115302868D01*
X132955694Y-115362209D01*
X132960760Y-115363240D01*
X132960761Y-115363240D01*
X133013846Y-115374040D01*
X133182656Y-115408385D01*
X133313324Y-115413176D01*
X133408949Y-115416683D01*
X133408953Y-115416683D01*
X133414113Y-115416872D01*
X133419233Y-115416216D01*
X133419235Y-115416216D01*
X133492291Y-115406857D01*
X133643847Y-115387442D01*
X133648795Y-115385957D01*
X133648802Y-115385956D01*
X133860747Y-115322369D01*
X133865690Y-115320886D01*
X133890855Y-115308558D01*
X134069049Y-115221262D01*
X134069052Y-115221260D01*
X134073684Y-115218991D01*
X134262243Y-115084494D01*
X134426303Y-114921005D01*
X134561458Y-114732917D01*
X134563879Y-114728020D01*
X134661784Y-114529922D01*
X134661785Y-114529920D01*
X134664078Y-114525280D01*
X134731408Y-114303671D01*
X134761640Y-114074041D01*
X134763327Y-114005000D01*
X134757032Y-113928434D01*
X134744773Y-113779318D01*
X134744772Y-113779312D01*
X134744349Y-113774167D01*
X134710797Y-113640592D01*
X134689184Y-113554544D01*
X134689183Y-113554540D01*
X134687925Y-113549533D01*
X134676017Y-113522146D01*
X134597630Y-113341868D01*
X134597628Y-113341865D01*
X134595570Y-113337131D01*
X134469764Y-113142665D01*
X134313887Y-112971358D01*
X134309836Y-112968159D01*
X134309832Y-112968155D01*
X134136177Y-112831011D01*
X134136172Y-112831008D01*
X134132123Y-112827810D01*
X134127607Y-112825317D01*
X134127604Y-112825315D01*
X133933879Y-112718373D01*
X133933875Y-112718371D01*
X133929355Y-112715876D01*
X133924486Y-112714152D01*
X133924482Y-112714150D01*
X133715903Y-112640288D01*
X133715899Y-112640287D01*
X133711028Y-112638562D01*
X133705935Y-112637655D01*
X133705932Y-112637654D01*
X133488095Y-112598851D01*
X133488089Y-112598850D01*
X133483006Y-112597945D01*
X133410096Y-112597054D01*
X133256581Y-112595179D01*
X133256579Y-112595179D01*
X133251411Y-112595116D01*
X133022464Y-112630150D01*
X132802314Y-112702106D01*
X132797726Y-112704494D01*
X132797722Y-112704496D01*
X132601461Y-112806663D01*
X132596872Y-112809052D01*
X132592739Y-112812155D01*
X132592736Y-112812157D01*
X132533284Y-112856795D01*
X132411655Y-112948117D01*
X132251639Y-113115564D01*
X132248725Y-113119836D01*
X132248724Y-113119837D01*
X132233152Y-113142665D01*
X132121119Y-113306899D01*
X132023602Y-113516981D01*
X131961707Y-113740169D01*
X131937095Y-113970469D01*
X127760488Y-113970469D01*
X127757032Y-113928434D01*
X127744773Y-113779318D01*
X127744772Y-113779312D01*
X127744349Y-113774167D01*
X127710797Y-113640592D01*
X127689184Y-113554544D01*
X127689183Y-113554540D01*
X127687925Y-113549533D01*
X127676017Y-113522146D01*
X127597630Y-113341868D01*
X127597628Y-113341865D01*
X127595570Y-113337131D01*
X127469764Y-113142665D01*
X127313887Y-112971358D01*
X127309836Y-112968159D01*
X127309832Y-112968155D01*
X127136177Y-112831011D01*
X127136172Y-112831008D01*
X127132123Y-112827810D01*
X127127607Y-112825317D01*
X127127604Y-112825315D01*
X126933879Y-112718373D01*
X126933875Y-112718371D01*
X126929355Y-112715876D01*
X126924486Y-112714152D01*
X126924482Y-112714150D01*
X126715903Y-112640288D01*
X126715899Y-112640287D01*
X126711028Y-112638562D01*
X126705935Y-112637655D01*
X126705932Y-112637654D01*
X126488095Y-112598851D01*
X126488089Y-112598850D01*
X126483006Y-112597945D01*
X126410096Y-112597054D01*
X126256581Y-112595179D01*
X126256579Y-112595179D01*
X126251411Y-112595116D01*
X126022464Y-112630150D01*
X125802314Y-112702106D01*
X125797726Y-112704494D01*
X125797722Y-112704496D01*
X125601461Y-112806663D01*
X125596872Y-112809052D01*
X125592739Y-112812155D01*
X125592736Y-112812157D01*
X125533284Y-112856795D01*
X125411655Y-112948117D01*
X125251639Y-113115564D01*
X125248725Y-113119836D01*
X125248724Y-113119837D01*
X125233152Y-113142665D01*
X125121119Y-113306899D01*
X125023602Y-113516981D01*
X124961707Y-113740169D01*
X124937095Y-113970469D01*
X118409987Y-113970469D01*
X118394279Y-113779400D01*
X118392596Y-113769238D01*
X118338710Y-113554708D01*
X118335389Y-113544953D01*
X118247193Y-113342118D01*
X118242315Y-113333020D01*
X118169224Y-113220038D01*
X118158538Y-113210835D01*
X118148973Y-113215238D01*
X117372021Y-113992189D01*
X117364408Y-114006132D01*
X116634356Y-114006132D01*
X116635592Y-114003868D01*
X116635461Y-114002034D01*
X116631210Y-113995420D01*
X115853862Y-113218073D01*
X115842330Y-113211776D01*
X115830048Y-113221399D01*
X115774467Y-113302877D01*
X115769379Y-113311833D01*
X115676252Y-113512459D01*
X115672689Y-113522146D01*
X115613581Y-113735280D01*
X115611650Y-113745400D01*
X115588145Y-113965349D01*
X115587893Y-113975638D01*
X111410913Y-113975638D01*
X111407032Y-113928434D01*
X111394773Y-113779318D01*
X111394772Y-113779312D01*
X111394349Y-113774167D01*
X111360797Y-113640592D01*
X111339184Y-113554544D01*
X111339183Y-113554540D01*
X111337925Y-113549533D01*
X111326017Y-113522146D01*
X111247630Y-113341868D01*
X111247628Y-113341865D01*
X111245570Y-113337131D01*
X111119764Y-113142665D01*
X110963887Y-112971358D01*
X110959836Y-112968159D01*
X110959832Y-112968155D01*
X110804790Y-112845711D01*
X116205508Y-112845711D01*
X116212251Y-112858040D01*
X116987189Y-113632979D01*
X117001132Y-113640592D01*
X117002966Y-113640461D01*
X117009580Y-113636210D01*
X117788994Y-112856795D01*
X117796011Y-112843944D01*
X117788237Y-112833274D01*
X117785902Y-112831430D01*
X117777320Y-112825729D01*
X117583678Y-112718833D01*
X117574272Y-112714606D01*
X117365772Y-112640772D01*
X117355809Y-112638140D01*
X117138047Y-112599350D01*
X117127796Y-112598381D01*
X116906616Y-112595679D01*
X116896332Y-112596399D01*
X116677693Y-112629855D01*
X116667666Y-112632244D01*
X116457426Y-112700961D01*
X116447916Y-112704958D01*
X116251725Y-112807089D01*
X116243007Y-112812578D01*
X116213961Y-112834386D01*
X116205508Y-112845711D01*
X110804790Y-112845711D01*
X110786177Y-112831011D01*
X110786172Y-112831008D01*
X110782123Y-112827810D01*
X110777607Y-112825317D01*
X110777604Y-112825315D01*
X110583879Y-112718373D01*
X110583875Y-112718371D01*
X110579355Y-112715876D01*
X110574486Y-112714152D01*
X110574482Y-112714150D01*
X110365903Y-112640288D01*
X110365899Y-112640287D01*
X110361028Y-112638562D01*
X110355935Y-112637655D01*
X110355932Y-112637654D01*
X110138095Y-112598851D01*
X110138089Y-112598850D01*
X110133006Y-112597945D01*
X110060096Y-112597054D01*
X109906581Y-112595179D01*
X109906579Y-112595179D01*
X109901411Y-112595116D01*
X109672464Y-112630150D01*
X109452314Y-112702106D01*
X109447726Y-112704494D01*
X109447722Y-112704496D01*
X109251461Y-112806663D01*
X109246872Y-112809052D01*
X109242739Y-112812155D01*
X109242736Y-112812157D01*
X109183284Y-112856795D01*
X109061655Y-112948117D01*
X108901639Y-113115564D01*
X108898725Y-113119836D01*
X108898724Y-113119837D01*
X108883152Y-113142665D01*
X108771119Y-113306899D01*
X108673602Y-113516981D01*
X108611707Y-113740169D01*
X108587095Y-113970469D01*
X94508500Y-113970469D01*
X94508500Y-110200000D01*
X97886496Y-110200000D01*
X97887186Y-110206565D01*
X97903810Y-110364730D01*
X97906458Y-110389928D01*
X97965473Y-110571556D01*
X98060960Y-110736944D01*
X98065378Y-110741851D01*
X98065379Y-110741852D01*
X98147452Y-110833003D01*
X98188747Y-110878866D01*
X98343248Y-110991118D01*
X98349276Y-110993802D01*
X98349278Y-110993803D01*
X98511681Y-111066109D01*
X98517712Y-111068794D01*
X98611112Y-111088647D01*
X98698056Y-111107128D01*
X98698061Y-111107128D01*
X98704513Y-111108500D01*
X98895487Y-111108500D01*
X98901939Y-111107128D01*
X98901944Y-111107128D01*
X98988888Y-111088647D01*
X99082288Y-111068794D01*
X99088319Y-111066109D01*
X99250722Y-110993803D01*
X99250724Y-110993802D01*
X99256752Y-110991118D01*
X99411253Y-110878866D01*
X99415668Y-110873963D01*
X99420580Y-110869540D01*
X99421705Y-110870789D01*
X99475014Y-110837949D01*
X99508200Y-110833500D01*
X105226233Y-110833500D01*
X105237416Y-110834027D01*
X105244909Y-110835702D01*
X105252835Y-110835453D01*
X105252836Y-110835453D01*
X105312986Y-110833562D01*
X105316945Y-110833500D01*
X105344856Y-110833500D01*
X105348791Y-110833003D01*
X105348856Y-110832995D01*
X105360693Y-110832062D01*
X105392951Y-110831048D01*
X105396970Y-110830922D01*
X105404889Y-110830673D01*
X105424343Y-110825021D01*
X105443700Y-110821013D01*
X105455930Y-110819468D01*
X105455931Y-110819468D01*
X105463797Y-110818474D01*
X105471168Y-110815555D01*
X105471170Y-110815555D01*
X105504912Y-110802196D01*
X105516142Y-110798351D01*
X105550983Y-110788229D01*
X105550984Y-110788229D01*
X105558593Y-110786018D01*
X105565412Y-110781985D01*
X105565417Y-110781983D01*
X105576028Y-110775707D01*
X105593776Y-110767012D01*
X105612617Y-110759552D01*
X105648387Y-110733564D01*
X105658307Y-110727048D01*
X105689535Y-110708580D01*
X105689538Y-110708578D01*
X105696362Y-110704542D01*
X105710683Y-110690221D01*
X105725717Y-110677380D01*
X105735694Y-110670131D01*
X105742107Y-110665472D01*
X105770298Y-110631395D01*
X105778288Y-110622616D01*
X106002148Y-110398756D01*
X106064460Y-110364730D01*
X106116363Y-110364380D01*
X106209679Y-110383365D01*
X106332656Y-110408385D01*
X106463324Y-110413176D01*
X106558949Y-110416683D01*
X106558953Y-110416683D01*
X106564113Y-110416872D01*
X106569233Y-110416216D01*
X106569235Y-110416216D01*
X106642270Y-110406860D01*
X106793847Y-110387442D01*
X106798795Y-110385957D01*
X106798802Y-110385956D01*
X107010747Y-110322369D01*
X107015690Y-110320886D01*
X107096236Y-110281427D01*
X107219049Y-110221262D01*
X107219052Y-110221260D01*
X107223684Y-110218991D01*
X107412243Y-110084494D01*
X107576303Y-109921005D01*
X107711458Y-109732917D01*
X107714381Y-109727004D01*
X107811784Y-109529922D01*
X107811785Y-109529920D01*
X107814078Y-109525280D01*
X107881408Y-109303671D01*
X107911640Y-109074041D01*
X107913327Y-109005000D01*
X107907032Y-108928434D01*
X107894773Y-108779318D01*
X107894772Y-108779312D01*
X107894349Y-108774167D01*
X107837925Y-108549533D01*
X107835866Y-108544797D01*
X107747630Y-108341868D01*
X107747628Y-108341865D01*
X107745570Y-108337131D01*
X107619764Y-108142665D01*
X107600506Y-108121500D01*
X107565065Y-108082551D01*
X107463887Y-107971358D01*
X107459836Y-107968159D01*
X107459832Y-107968155D01*
X107286177Y-107831011D01*
X107286172Y-107831008D01*
X107282123Y-107827810D01*
X107277607Y-107825317D01*
X107277604Y-107825315D01*
X107083879Y-107718373D01*
X107083875Y-107718371D01*
X107079355Y-107715876D01*
X107074486Y-107714152D01*
X107074482Y-107714150D01*
X106865903Y-107640288D01*
X106865899Y-107640287D01*
X106861028Y-107638562D01*
X106855935Y-107637655D01*
X106855932Y-107637654D01*
X106638095Y-107598851D01*
X106638089Y-107598850D01*
X106633006Y-107597945D01*
X106560096Y-107597054D01*
X106406581Y-107595179D01*
X106406579Y-107595179D01*
X106401411Y-107595116D01*
X106172464Y-107630150D01*
X105952314Y-107702106D01*
X105947726Y-107704494D01*
X105947722Y-107704496D01*
X105921065Y-107718373D01*
X105746872Y-107809052D01*
X105742739Y-107812155D01*
X105742736Y-107812157D01*
X105717625Y-107831011D01*
X105561655Y-107948117D01*
X105401639Y-108115564D01*
X105398725Y-108119836D01*
X105398724Y-108119837D01*
X105383152Y-108142665D01*
X105271119Y-108306899D01*
X105173602Y-108516981D01*
X105111707Y-108740169D01*
X105087095Y-108970469D01*
X105087392Y-108975622D01*
X105087392Y-108975625D01*
X105093067Y-109074041D01*
X105100427Y-109201697D01*
X105101564Y-109206743D01*
X105101565Y-109206749D01*
X105141623Y-109384498D01*
X105137087Y-109455350D01*
X105107801Y-109501294D01*
X105079500Y-109529595D01*
X105017188Y-109563621D01*
X104990405Y-109566500D01*
X99508200Y-109566500D01*
X99440079Y-109546498D01*
X99420853Y-109530157D01*
X99420580Y-109530460D01*
X99415668Y-109526037D01*
X99411253Y-109521134D01*
X99383946Y-109501294D01*
X99262094Y-109412763D01*
X99262093Y-109412762D01*
X99256752Y-109408882D01*
X99250724Y-109406198D01*
X99250722Y-109406197D01*
X99088319Y-109333891D01*
X99088318Y-109333891D01*
X99082288Y-109331206D01*
X98976016Y-109308617D01*
X98901944Y-109292872D01*
X98901939Y-109292872D01*
X98895487Y-109291500D01*
X98704513Y-109291500D01*
X98698061Y-109292872D01*
X98698056Y-109292872D01*
X98623984Y-109308617D01*
X98517712Y-109331206D01*
X98511682Y-109333891D01*
X98511681Y-109333891D01*
X98349278Y-109406197D01*
X98349276Y-109406198D01*
X98343248Y-109408882D01*
X98188747Y-109521134D01*
X98184326Y-109526044D01*
X98184325Y-109526045D01*
X98150492Y-109563621D01*
X98060960Y-109663056D01*
X98020626Y-109732917D01*
X97974240Y-109813260D01*
X97965473Y-109828444D01*
X97906458Y-110010072D01*
X97905768Y-110016633D01*
X97905768Y-110016635D01*
X97899019Y-110080850D01*
X97886496Y-110200000D01*
X94508500Y-110200000D01*
X94508500Y-103461406D01*
X98903423Y-103461406D01*
X98908704Y-103468461D01*
X99085080Y-103571527D01*
X99094363Y-103575974D01*
X99301003Y-103654883D01*
X99310901Y-103657759D01*
X99527653Y-103701857D01*
X99537883Y-103703076D01*
X99758914Y-103711182D01*
X99769223Y-103710714D01*
X99988623Y-103682608D01*
X99998688Y-103680468D01*
X100210557Y-103616905D01*
X100220152Y-103613144D01*
X100418778Y-103515838D01*
X100427636Y-103510559D01*
X100485097Y-103469572D01*
X100493497Y-103458874D01*
X100486510Y-103445721D01*
X99712811Y-102672021D01*
X99698868Y-102664408D01*
X99697034Y-102664539D01*
X99690420Y-102668790D01*
X98910180Y-103449031D01*
X98903423Y-103461406D01*
X94508500Y-103461406D01*
X94508500Y-102270638D01*
X98287893Y-102270638D01*
X98300627Y-102491468D01*
X98302061Y-102501670D01*
X98350685Y-102717439D01*
X98353773Y-102727292D01*
X98436986Y-102932220D01*
X98441634Y-102941421D01*
X98530097Y-103085781D01*
X98540553Y-103095242D01*
X98549331Y-103091458D01*
X99327979Y-102312811D01*
X99334356Y-102301132D01*
X100064408Y-102301132D01*
X100064539Y-102302966D01*
X100068790Y-102309580D01*
X100846307Y-103087096D01*
X100858313Y-103093652D01*
X100870052Y-103084684D01*
X100908010Y-103031859D01*
X100913321Y-103023020D01*
X101011318Y-102824737D01*
X101015117Y-102815142D01*
X101079415Y-102603517D01*
X101081594Y-102593436D01*
X101110702Y-102372338D01*
X101111221Y-102365663D01*
X101112744Y-102303364D01*
X101112550Y-102296646D01*
X101094279Y-102074400D01*
X101092596Y-102064238D01*
X101038710Y-101849708D01*
X101035389Y-101839953D01*
X100947193Y-101637118D01*
X100942315Y-101628020D01*
X100869224Y-101515038D01*
X100858538Y-101505835D01*
X100848973Y-101510238D01*
X100072021Y-102287189D01*
X100064408Y-102301132D01*
X99334356Y-102301132D01*
X99335592Y-102298868D01*
X99335461Y-102297034D01*
X99331210Y-102290420D01*
X98553862Y-101513073D01*
X98542330Y-101506776D01*
X98530048Y-101516399D01*
X98474467Y-101597877D01*
X98469379Y-101606833D01*
X98376252Y-101807459D01*
X98372689Y-101817146D01*
X98313581Y-102030280D01*
X98311650Y-102040400D01*
X98288145Y-102260349D01*
X98287893Y-102270638D01*
X94508500Y-102270638D01*
X94508500Y-101140711D01*
X98905508Y-101140711D01*
X98912251Y-101153040D01*
X99687189Y-101927979D01*
X99701132Y-101935592D01*
X99702966Y-101935461D01*
X99709580Y-101931210D01*
X100488994Y-101151795D01*
X100496011Y-101138944D01*
X100488237Y-101128274D01*
X100485902Y-101126430D01*
X100477320Y-101120729D01*
X100283678Y-101013833D01*
X100274272Y-101009606D01*
X100065772Y-100935772D01*
X100055809Y-100933140D01*
X99838047Y-100894350D01*
X99827796Y-100893381D01*
X99606616Y-100890679D01*
X99596332Y-100891399D01*
X99377693Y-100924855D01*
X99367666Y-100927244D01*
X99157426Y-100995961D01*
X99147916Y-100999958D01*
X98951725Y-101102089D01*
X98943007Y-101107578D01*
X98913961Y-101129386D01*
X98905508Y-101140711D01*
X94508500Y-101140711D01*
X94508500Y-98765469D01*
X103287095Y-98765469D01*
X103287392Y-98770622D01*
X103287392Y-98770625D01*
X103293067Y-98869041D01*
X103300427Y-98996697D01*
X103301564Y-99001743D01*
X103301565Y-99001749D01*
X103333741Y-99144523D01*
X103351346Y-99222642D01*
X103353288Y-99227424D01*
X103353289Y-99227428D01*
X103436540Y-99432450D01*
X103438484Y-99437237D01*
X103559501Y-99634719D01*
X103711147Y-99809784D01*
X103715122Y-99813084D01*
X103715125Y-99813087D01*
X103770985Y-99859463D01*
X103810620Y-99918366D01*
X103816500Y-99956407D01*
X103816500Y-101920543D01*
X103814949Y-101940255D01*
X103812850Y-101953507D01*
X103813195Y-101960094D01*
X103813195Y-101960098D01*
X103816327Y-102019850D01*
X103816500Y-102026445D01*
X103816500Y-102046306D01*
X103818576Y-102066059D01*
X103819093Y-102072628D01*
X103819921Y-102088427D01*
X103821380Y-102116262D01*
X103822570Y-102138971D01*
X103826042Y-102151929D01*
X103829645Y-102171372D01*
X103831046Y-102184702D01*
X103851578Y-102247894D01*
X103853444Y-102254196D01*
X103864819Y-102296646D01*
X103870638Y-102318363D01*
X103873634Y-102324242D01*
X103873637Y-102324251D01*
X103876728Y-102330317D01*
X103884292Y-102348579D01*
X103886392Y-102355043D01*
X103886395Y-102355051D01*
X103888436Y-102361331D01*
X103891738Y-102367050D01*
X103891740Y-102367055D01*
X103921654Y-102418867D01*
X103924787Y-102424637D01*
X103954953Y-102483839D01*
X103959109Y-102488971D01*
X103963391Y-102494259D01*
X103974589Y-102510552D01*
X103981296Y-102522169D01*
X103985713Y-102527075D01*
X103985717Y-102527080D01*
X104025747Y-102571538D01*
X104030031Y-102576554D01*
X104040441Y-102589409D01*
X104042528Y-102591986D01*
X104056573Y-102606031D01*
X104061114Y-102610816D01*
X104105566Y-102660185D01*
X104116426Y-102668075D01*
X104131454Y-102680912D01*
X111024088Y-109573546D01*
X111036925Y-109588574D01*
X111044815Y-109599434D01*
X111049725Y-109603855D01*
X111049726Y-109603856D01*
X111094184Y-109643886D01*
X111098969Y-109648427D01*
X111113014Y-109662472D01*
X111115588Y-109664556D01*
X111115591Y-109664559D01*
X111128446Y-109674969D01*
X111133462Y-109679253D01*
X111177920Y-109719283D01*
X111177925Y-109719287D01*
X111182831Y-109723704D01*
X111190754Y-109728278D01*
X111194448Y-109730411D01*
X111210741Y-109741609D01*
X111221161Y-109750047D01*
X111280363Y-109780213D01*
X111286133Y-109783346D01*
X111337945Y-109813260D01*
X111337950Y-109813262D01*
X111343669Y-109816564D01*
X111349949Y-109818605D01*
X111349957Y-109818608D01*
X111356421Y-109820708D01*
X111374683Y-109828272D01*
X111380749Y-109831363D01*
X111380758Y-109831366D01*
X111386637Y-109834362D01*
X111393015Y-109836071D01*
X111450804Y-109851556D01*
X111457106Y-109853422D01*
X111520298Y-109873954D01*
X111533205Y-109875311D01*
X111533628Y-109875355D01*
X111553071Y-109878958D01*
X111566029Y-109882430D01*
X111572619Y-109882775D01*
X111572623Y-109882776D01*
X111616573Y-109885079D01*
X111632372Y-109885907D01*
X111638931Y-109886423D01*
X111658694Y-109888500D01*
X111678555Y-109888500D01*
X111685150Y-109888673D01*
X111744902Y-109891805D01*
X111744906Y-109891805D01*
X111751493Y-109892150D01*
X111764747Y-109890051D01*
X111784456Y-109888500D01*
X112344202Y-109888500D01*
X112412323Y-109908502D01*
X112439440Y-109932003D01*
X112507763Y-110010878D01*
X112507766Y-110010881D01*
X112511147Y-110014784D01*
X112689349Y-110162730D01*
X112889322Y-110279584D01*
X113105694Y-110362209D01*
X113110760Y-110363240D01*
X113110761Y-110363240D01*
X113118085Y-110364730D01*
X113332656Y-110408385D01*
X113463324Y-110413176D01*
X113558949Y-110416683D01*
X113558953Y-110416683D01*
X113564113Y-110416872D01*
X113569233Y-110416216D01*
X113569235Y-110416216D01*
X113642270Y-110406860D01*
X113793847Y-110387442D01*
X113798795Y-110385957D01*
X113798802Y-110385956D01*
X114010747Y-110322369D01*
X114015690Y-110320886D01*
X114096236Y-110281427D01*
X114219049Y-110221262D01*
X114219052Y-110221260D01*
X114223684Y-110218991D01*
X114412243Y-110084494D01*
X114576303Y-109921005D01*
X114711458Y-109732917D01*
X114714381Y-109727004D01*
X114811784Y-109529922D01*
X114811785Y-109529920D01*
X114814078Y-109525280D01*
X114881408Y-109303671D01*
X114911640Y-109074041D01*
X114913327Y-109005000D01*
X114910488Y-108970469D01*
X121437095Y-108970469D01*
X121437392Y-108975622D01*
X121437392Y-108975625D01*
X121443067Y-109074041D01*
X121450427Y-109201697D01*
X121451564Y-109206743D01*
X121451565Y-109206749D01*
X121479304Y-109329834D01*
X121501346Y-109427642D01*
X121503288Y-109432424D01*
X121503289Y-109432428D01*
X121572899Y-109603856D01*
X121588484Y-109642237D01*
X121709501Y-109839719D01*
X121861147Y-110014784D01*
X122039349Y-110162730D01*
X122239322Y-110279584D01*
X122455694Y-110362209D01*
X122460760Y-110363240D01*
X122460761Y-110363240D01*
X122468085Y-110364730D01*
X122682656Y-110408385D01*
X122813324Y-110413176D01*
X122908949Y-110416683D01*
X122908953Y-110416683D01*
X122914113Y-110416872D01*
X122919233Y-110416216D01*
X122919235Y-110416216D01*
X122992270Y-110406860D01*
X123143847Y-110387442D01*
X123148795Y-110385957D01*
X123148802Y-110385956D01*
X123360747Y-110322369D01*
X123365690Y-110320886D01*
X123446236Y-110281427D01*
X123569049Y-110221262D01*
X123569052Y-110221260D01*
X123573684Y-110218991D01*
X123762243Y-110084494D01*
X123926303Y-109921005D01*
X124061458Y-109732917D01*
X124064381Y-109727004D01*
X124161784Y-109529922D01*
X124161785Y-109529920D01*
X124164078Y-109525280D01*
X124231408Y-109303671D01*
X124261640Y-109074041D01*
X124263327Y-109005000D01*
X124260488Y-108970469D01*
X128437095Y-108970469D01*
X128437392Y-108975622D01*
X128437392Y-108975625D01*
X128443067Y-109074041D01*
X128450427Y-109201697D01*
X128451564Y-109206743D01*
X128451565Y-109206749D01*
X128479304Y-109329834D01*
X128501346Y-109427642D01*
X128503288Y-109432424D01*
X128503289Y-109432428D01*
X128572899Y-109603856D01*
X128588484Y-109642237D01*
X128709501Y-109839719D01*
X128861147Y-110014784D01*
X129039349Y-110162730D01*
X129239322Y-110279584D01*
X129455694Y-110362209D01*
X129460760Y-110363240D01*
X129460761Y-110363240D01*
X129468085Y-110364730D01*
X129682656Y-110408385D01*
X129813324Y-110413176D01*
X129908949Y-110416683D01*
X129908953Y-110416683D01*
X129914113Y-110416872D01*
X129919233Y-110416216D01*
X129919235Y-110416216D01*
X129992270Y-110406860D01*
X130143847Y-110387442D01*
X130148795Y-110385957D01*
X130148802Y-110385956D01*
X130360747Y-110322369D01*
X130365690Y-110320886D01*
X130446236Y-110281427D01*
X130569049Y-110221262D01*
X130569052Y-110221260D01*
X130573684Y-110218991D01*
X130762243Y-110084494D01*
X130926303Y-109921005D01*
X131061458Y-109732917D01*
X131064381Y-109727004D01*
X131161784Y-109529922D01*
X131161785Y-109529920D01*
X131164078Y-109525280D01*
X131231408Y-109303671D01*
X131261640Y-109074041D01*
X131263327Y-109005000D01*
X131257032Y-108928434D01*
X131244773Y-108779318D01*
X131244772Y-108779312D01*
X131244349Y-108774167D01*
X131187925Y-108549533D01*
X131185866Y-108544797D01*
X131097630Y-108341868D01*
X131097628Y-108341865D01*
X131095570Y-108337131D01*
X130969764Y-108142665D01*
X130950506Y-108121500D01*
X130915065Y-108082551D01*
X130813887Y-107971358D01*
X130809836Y-107968159D01*
X130809832Y-107968155D01*
X130636177Y-107831011D01*
X130636172Y-107831008D01*
X130632123Y-107827810D01*
X130627607Y-107825317D01*
X130627604Y-107825315D01*
X130433879Y-107718373D01*
X130433875Y-107718371D01*
X130429355Y-107715876D01*
X130424486Y-107714152D01*
X130424482Y-107714150D01*
X130215903Y-107640288D01*
X130215899Y-107640287D01*
X130211028Y-107638562D01*
X130205935Y-107637655D01*
X130205932Y-107637654D01*
X129988095Y-107598851D01*
X129988089Y-107598850D01*
X129983006Y-107597945D01*
X129910096Y-107597054D01*
X129756581Y-107595179D01*
X129756579Y-107595179D01*
X129751411Y-107595116D01*
X129522464Y-107630150D01*
X129302314Y-107702106D01*
X129297726Y-107704494D01*
X129297722Y-107704496D01*
X129271065Y-107718373D01*
X129096872Y-107809052D01*
X129092739Y-107812155D01*
X129092736Y-107812157D01*
X129067625Y-107831011D01*
X128911655Y-107948117D01*
X128751639Y-108115564D01*
X128748725Y-108119836D01*
X128748724Y-108119837D01*
X128733152Y-108142665D01*
X128621119Y-108306899D01*
X128523602Y-108516981D01*
X128461707Y-108740169D01*
X128437095Y-108970469D01*
X124260488Y-108970469D01*
X124257032Y-108928434D01*
X124244773Y-108779318D01*
X124244772Y-108779312D01*
X124244349Y-108774167D01*
X124187925Y-108549533D01*
X124185866Y-108544797D01*
X124097630Y-108341868D01*
X124097628Y-108341865D01*
X124095570Y-108337131D01*
X123969764Y-108142665D01*
X123950506Y-108121500D01*
X123915065Y-108082551D01*
X123813887Y-107971358D01*
X123809836Y-107968159D01*
X123809832Y-107968155D01*
X123636177Y-107831011D01*
X123636172Y-107831008D01*
X123632123Y-107827810D01*
X123627607Y-107825317D01*
X123627604Y-107825315D01*
X123433879Y-107718373D01*
X123433875Y-107718371D01*
X123429355Y-107715876D01*
X123424486Y-107714152D01*
X123424482Y-107714150D01*
X123215903Y-107640288D01*
X123215899Y-107640287D01*
X123211028Y-107638562D01*
X123205935Y-107637655D01*
X123205932Y-107637654D01*
X122988095Y-107598851D01*
X122988089Y-107598850D01*
X122983006Y-107597945D01*
X122910096Y-107597054D01*
X122756581Y-107595179D01*
X122756579Y-107595179D01*
X122751411Y-107595116D01*
X122522464Y-107630150D01*
X122302314Y-107702106D01*
X122297726Y-107704494D01*
X122297722Y-107704496D01*
X122271065Y-107718373D01*
X122096872Y-107809052D01*
X122092739Y-107812155D01*
X122092736Y-107812157D01*
X122067625Y-107831011D01*
X121911655Y-107948117D01*
X121751639Y-108115564D01*
X121748725Y-108119836D01*
X121748724Y-108119837D01*
X121733152Y-108142665D01*
X121621119Y-108306899D01*
X121523602Y-108516981D01*
X121461707Y-108740169D01*
X121437095Y-108970469D01*
X114910488Y-108970469D01*
X114907032Y-108928434D01*
X114894773Y-108779318D01*
X114894772Y-108779312D01*
X114894349Y-108774167D01*
X114837925Y-108549533D01*
X114835866Y-108544797D01*
X114747630Y-108341868D01*
X114747628Y-108341865D01*
X114745570Y-108337131D01*
X114619764Y-108142665D01*
X114600506Y-108121500D01*
X114565065Y-108082551D01*
X114463887Y-107971358D01*
X114459836Y-107968159D01*
X114459832Y-107968155D01*
X114286177Y-107831011D01*
X114286172Y-107831008D01*
X114282123Y-107827810D01*
X114277607Y-107825317D01*
X114277604Y-107825315D01*
X114083879Y-107718373D01*
X114083875Y-107718371D01*
X114079355Y-107715876D01*
X114074486Y-107714152D01*
X114074482Y-107714150D01*
X113865903Y-107640288D01*
X113865899Y-107640287D01*
X113861028Y-107638562D01*
X113855935Y-107637655D01*
X113855932Y-107637654D01*
X113638095Y-107598851D01*
X113638089Y-107598850D01*
X113633006Y-107597945D01*
X113560096Y-107597054D01*
X113406581Y-107595179D01*
X113406579Y-107595179D01*
X113401411Y-107595116D01*
X113172464Y-107630150D01*
X112952314Y-107702106D01*
X112947726Y-107704494D01*
X112947722Y-107704496D01*
X112921065Y-107718373D01*
X112746872Y-107809052D01*
X112742739Y-107812155D01*
X112742736Y-107812157D01*
X112717625Y-107831011D01*
X112561655Y-107948117D01*
X112535792Y-107975181D01*
X112433187Y-108082551D01*
X112371663Y-108117981D01*
X112342093Y-108121500D01*
X112123148Y-108121500D01*
X112055027Y-108101498D01*
X112034053Y-108084595D01*
X105620405Y-101670947D01*
X105586379Y-101608635D01*
X105583500Y-101581852D01*
X105583500Y-100865469D01*
X131887095Y-100865469D01*
X131887392Y-100870622D01*
X131887392Y-100870625D01*
X131895649Y-101013833D01*
X131900427Y-101096697D01*
X131901564Y-101101743D01*
X131901565Y-101101749D01*
X131933741Y-101244523D01*
X131951346Y-101322642D01*
X131953288Y-101327424D01*
X131953289Y-101327428D01*
X132036540Y-101532450D01*
X132038484Y-101537237D01*
X132159501Y-101734719D01*
X132311147Y-101909784D01*
X132489349Y-102057730D01*
X132689322Y-102174584D01*
X132905694Y-102257209D01*
X132910760Y-102258240D01*
X132910761Y-102258240D01*
X132963846Y-102269040D01*
X133132656Y-102303385D01*
X133263324Y-102308176D01*
X133358949Y-102311683D01*
X133358953Y-102311683D01*
X133364113Y-102311872D01*
X133369233Y-102311216D01*
X133369235Y-102311216D01*
X133447951Y-102301132D01*
X133593847Y-102282442D01*
X133598795Y-102280957D01*
X133598802Y-102280956D01*
X133810747Y-102217369D01*
X133815690Y-102215886D01*
X133896236Y-102176427D01*
X134019049Y-102116262D01*
X134019052Y-102116260D01*
X134023684Y-102113991D01*
X134212243Y-101979494D01*
X134376303Y-101816005D01*
X134511458Y-101627917D01*
X134521879Y-101606833D01*
X134611784Y-101424922D01*
X134611785Y-101424920D01*
X134614078Y-101420280D01*
X134681408Y-101198671D01*
X134711640Y-100969041D01*
X134713327Y-100900000D01*
X134707032Y-100823434D01*
X134694773Y-100674318D01*
X134694772Y-100674312D01*
X134694349Y-100669167D01*
X134637925Y-100444533D01*
X134635866Y-100439797D01*
X134547630Y-100236868D01*
X134547628Y-100236865D01*
X134545570Y-100232131D01*
X134419764Y-100037665D01*
X134263887Y-99866358D01*
X134259836Y-99863159D01*
X134259832Y-99863155D01*
X134086177Y-99726011D01*
X134086172Y-99726008D01*
X134082123Y-99722810D01*
X134077607Y-99720317D01*
X134077604Y-99720315D01*
X133883879Y-99613373D01*
X133883875Y-99613371D01*
X133879355Y-99610876D01*
X133874486Y-99609152D01*
X133874482Y-99609150D01*
X133665903Y-99535288D01*
X133665899Y-99535287D01*
X133661028Y-99533562D01*
X133655935Y-99532655D01*
X133655932Y-99532654D01*
X133438095Y-99493851D01*
X133438089Y-99493850D01*
X133433006Y-99492945D01*
X133360096Y-99492054D01*
X133206581Y-99490179D01*
X133206579Y-99490179D01*
X133201411Y-99490116D01*
X132972464Y-99525150D01*
X132752314Y-99597106D01*
X132747726Y-99599494D01*
X132747722Y-99599496D01*
X132672562Y-99638622D01*
X132546872Y-99704052D01*
X132542739Y-99707155D01*
X132542736Y-99707157D01*
X132406050Y-99809784D01*
X132361655Y-99843117D01*
X132201639Y-100010564D01*
X132198725Y-100014836D01*
X132198724Y-100014837D01*
X132183152Y-100037665D01*
X132071119Y-100201899D01*
X131973602Y-100411981D01*
X131911707Y-100635169D01*
X131887095Y-100865469D01*
X105583500Y-100865469D01*
X105583500Y-99960457D01*
X105603502Y-99892336D01*
X105620560Y-99871206D01*
X105772642Y-99719653D01*
X105776303Y-99716005D01*
X105911458Y-99527917D01*
X105928295Y-99493851D01*
X106011784Y-99324922D01*
X106011785Y-99324920D01*
X106014078Y-99320280D01*
X106081408Y-99098671D01*
X106111640Y-98869041D01*
X106113240Y-98803574D01*
X106113245Y-98803365D01*
X106113245Y-98803361D01*
X106113327Y-98800000D01*
X106106225Y-98713616D01*
X106094773Y-98574318D01*
X106094772Y-98574312D01*
X106094349Y-98569167D01*
X106037925Y-98344533D01*
X106027107Y-98319653D01*
X105947630Y-98136868D01*
X105947628Y-98136865D01*
X105945570Y-98132131D01*
X105819764Y-97937665D01*
X105663887Y-97766358D01*
X105659836Y-97763159D01*
X105659832Y-97763155D01*
X105486177Y-97626011D01*
X105486172Y-97626008D01*
X105482123Y-97622810D01*
X105477607Y-97620317D01*
X105477604Y-97620315D01*
X105283879Y-97513373D01*
X105283875Y-97513371D01*
X105279355Y-97510876D01*
X105274486Y-97509152D01*
X105274482Y-97509150D01*
X105065903Y-97435288D01*
X105065899Y-97435287D01*
X105061028Y-97433562D01*
X105055935Y-97432655D01*
X105055932Y-97432654D01*
X104838095Y-97393851D01*
X104838089Y-97393850D01*
X104833006Y-97392945D01*
X104760096Y-97392054D01*
X104606581Y-97390179D01*
X104606579Y-97390179D01*
X104601411Y-97390116D01*
X104372464Y-97425150D01*
X104152314Y-97497106D01*
X104147726Y-97499494D01*
X104147722Y-97499496D01*
X103961001Y-97596697D01*
X103946872Y-97604052D01*
X103942739Y-97607155D01*
X103942736Y-97607157D01*
X103820851Y-97698671D01*
X103761655Y-97743117D01*
X103601639Y-97910564D01*
X103598725Y-97914836D01*
X103598724Y-97914837D01*
X103583152Y-97937665D01*
X103471119Y-98101899D01*
X103373602Y-98311981D01*
X103311707Y-98535169D01*
X103287095Y-98765469D01*
X94508500Y-98765469D01*
X94508500Y-97365469D01*
X136887095Y-97365469D01*
X136887392Y-97370622D01*
X136887392Y-97370625D01*
X136893067Y-97469041D01*
X136900427Y-97596697D01*
X136901564Y-97601743D01*
X136901565Y-97601749D01*
X136932724Y-97740012D01*
X136951346Y-97822642D01*
X136953288Y-97827424D01*
X136953289Y-97827428D01*
X136996498Y-97933838D01*
X137038484Y-98037237D01*
X137159501Y-98234719D01*
X137311147Y-98409784D01*
X137489349Y-98557730D01*
X137689322Y-98674584D01*
X137905694Y-98757209D01*
X137910760Y-98758240D01*
X137910761Y-98758240D01*
X137946293Y-98765469D01*
X138132656Y-98803385D01*
X138263324Y-98808176D01*
X138358949Y-98811683D01*
X138358953Y-98811683D01*
X138364113Y-98811872D01*
X138369233Y-98811216D01*
X138369235Y-98811216D01*
X138456787Y-98800000D01*
X138593847Y-98782442D01*
X138598795Y-98780957D01*
X138598802Y-98780956D01*
X138810747Y-98717369D01*
X138815690Y-98715886D01*
X138896236Y-98676427D01*
X139019049Y-98616262D01*
X139019052Y-98616260D01*
X139023684Y-98613991D01*
X139212243Y-98479494D01*
X139376303Y-98316005D01*
X139382558Y-98307301D01*
X139437875Y-98230318D01*
X139511458Y-98127917D01*
X139558641Y-98032450D01*
X139611784Y-97924922D01*
X139611785Y-97924920D01*
X139614078Y-97920280D01*
X139681408Y-97698671D01*
X139711640Y-97469041D01*
X139712673Y-97426757D01*
X139713245Y-97403365D01*
X139713245Y-97403361D01*
X139713327Y-97400000D01*
X139707032Y-97323434D01*
X139694773Y-97174318D01*
X139694772Y-97174312D01*
X139694349Y-97169167D01*
X139637925Y-96944533D01*
X139635866Y-96939797D01*
X139547630Y-96736868D01*
X139547628Y-96736865D01*
X139545570Y-96732131D01*
X139419764Y-96537665D01*
X139398223Y-96513991D01*
X139347029Y-96457730D01*
X139263887Y-96366358D01*
X139259836Y-96363159D01*
X139259832Y-96363155D01*
X139086177Y-96226011D01*
X139086172Y-96226008D01*
X139082123Y-96222810D01*
X139077607Y-96220317D01*
X139077604Y-96220315D01*
X138883879Y-96113373D01*
X138883875Y-96113371D01*
X138879355Y-96110876D01*
X138874486Y-96109152D01*
X138874482Y-96109150D01*
X138665903Y-96035288D01*
X138665899Y-96035287D01*
X138661028Y-96033562D01*
X138655935Y-96032655D01*
X138655932Y-96032654D01*
X138438095Y-95993851D01*
X138438089Y-95993850D01*
X138433006Y-95992945D01*
X138360096Y-95992054D01*
X138206581Y-95990179D01*
X138206579Y-95990179D01*
X138201411Y-95990116D01*
X137972464Y-96025150D01*
X137752314Y-96097106D01*
X137747726Y-96099494D01*
X137747722Y-96099496D01*
X137672562Y-96138622D01*
X137546872Y-96204052D01*
X137542739Y-96207155D01*
X137542736Y-96207157D01*
X137406050Y-96309784D01*
X137361655Y-96343117D01*
X137201639Y-96510564D01*
X137198725Y-96514836D01*
X137198724Y-96514837D01*
X137125348Y-96622402D01*
X137071119Y-96701899D01*
X136973602Y-96911981D01*
X136911707Y-97135169D01*
X136887095Y-97365469D01*
X94508500Y-97365469D01*
X94508500Y-95265469D01*
X98287095Y-95265469D01*
X98287392Y-95270622D01*
X98287392Y-95270625D01*
X98293067Y-95369041D01*
X98300427Y-95496697D01*
X98301564Y-95501743D01*
X98301565Y-95501749D01*
X98333741Y-95644523D01*
X98351346Y-95722642D01*
X98353288Y-95727424D01*
X98353289Y-95727428D01*
X98436540Y-95932450D01*
X98438484Y-95937237D01*
X98559501Y-96134719D01*
X98711147Y-96309784D01*
X98889349Y-96457730D01*
X99089322Y-96574584D01*
X99305694Y-96657209D01*
X99310760Y-96658240D01*
X99310761Y-96658240D01*
X99363846Y-96669040D01*
X99532656Y-96703385D01*
X99663324Y-96708176D01*
X99758949Y-96711683D01*
X99758953Y-96711683D01*
X99764113Y-96711872D01*
X99769233Y-96711216D01*
X99769235Y-96711216D01*
X99875342Y-96697623D01*
X99993847Y-96682442D01*
X99998795Y-96680957D01*
X99998802Y-96680956D01*
X100210747Y-96617369D01*
X100215690Y-96615886D01*
X100296236Y-96576427D01*
X100419049Y-96516262D01*
X100419052Y-96516260D01*
X100423684Y-96513991D01*
X100612243Y-96379494D01*
X100776303Y-96216005D01*
X100911458Y-96027917D01*
X100928295Y-95993851D01*
X101011784Y-95824922D01*
X101011785Y-95824920D01*
X101014078Y-95820280D01*
X101081408Y-95598671D01*
X101111640Y-95369041D01*
X101113240Y-95303574D01*
X101113245Y-95303365D01*
X101113245Y-95303361D01*
X101113327Y-95300000D01*
X101106225Y-95213616D01*
X101094773Y-95074318D01*
X101094772Y-95074312D01*
X101094349Y-95069167D01*
X101037925Y-94844533D01*
X101027107Y-94819653D01*
X100947630Y-94636868D01*
X100947628Y-94636865D01*
X100945570Y-94632131D01*
X100819764Y-94437665D01*
X100663887Y-94266358D01*
X100659836Y-94263159D01*
X100659832Y-94263155D01*
X100486177Y-94126011D01*
X100486172Y-94126008D01*
X100482123Y-94122810D01*
X100477607Y-94120317D01*
X100477604Y-94120315D01*
X100283879Y-94013373D01*
X100283875Y-94013371D01*
X100279355Y-94010876D01*
X100274486Y-94009152D01*
X100274482Y-94009150D01*
X100065903Y-93935288D01*
X100065899Y-93935287D01*
X100061028Y-93933562D01*
X100055935Y-93932655D01*
X100055932Y-93932654D01*
X99838095Y-93893851D01*
X99838089Y-93893850D01*
X99833006Y-93892945D01*
X99760096Y-93892054D01*
X99606581Y-93890179D01*
X99606579Y-93890179D01*
X99601411Y-93890116D01*
X99372464Y-93925150D01*
X99152314Y-93997106D01*
X99147726Y-93999494D01*
X99147722Y-93999496D01*
X98961001Y-94096697D01*
X98946872Y-94104052D01*
X98942739Y-94107155D01*
X98942736Y-94107157D01*
X98820851Y-94198671D01*
X98761655Y-94243117D01*
X98601639Y-94410564D01*
X98598725Y-94414836D01*
X98598724Y-94414837D01*
X98583152Y-94437665D01*
X98471119Y-94601899D01*
X98373602Y-94811981D01*
X98311707Y-95035169D01*
X98287095Y-95265469D01*
X94508500Y-95265469D01*
X94508500Y-93865469D01*
X131887095Y-93865469D01*
X131887392Y-93870622D01*
X131887392Y-93870625D01*
X131893067Y-93969041D01*
X131900427Y-94096697D01*
X131901564Y-94101743D01*
X131901565Y-94101749D01*
X131932724Y-94240012D01*
X131951346Y-94322642D01*
X131953288Y-94327424D01*
X131953289Y-94327428D01*
X131996498Y-94433838D01*
X132038484Y-94537237D01*
X132159501Y-94734719D01*
X132311147Y-94909784D01*
X132489349Y-95057730D01*
X132689322Y-95174584D01*
X132905694Y-95257209D01*
X132910760Y-95258240D01*
X132910761Y-95258240D01*
X132946293Y-95265469D01*
X133132656Y-95303385D01*
X133263324Y-95308176D01*
X133358949Y-95311683D01*
X133358953Y-95311683D01*
X133364113Y-95311872D01*
X133369233Y-95311216D01*
X133369235Y-95311216D01*
X133456787Y-95300000D01*
X133593847Y-95282442D01*
X133598795Y-95280957D01*
X133598802Y-95280956D01*
X133810747Y-95217369D01*
X133815690Y-95215886D01*
X133896236Y-95176427D01*
X134019049Y-95116262D01*
X134019052Y-95116260D01*
X134023684Y-95113991D01*
X134212243Y-94979494D01*
X134376303Y-94816005D01*
X134382558Y-94807301D01*
X134437875Y-94730318D01*
X134511458Y-94627917D01*
X134558641Y-94532450D01*
X134611784Y-94424922D01*
X134611785Y-94424920D01*
X134614078Y-94420280D01*
X134681408Y-94198671D01*
X134711640Y-93969041D01*
X134712673Y-93926757D01*
X134713245Y-93903365D01*
X134713245Y-93903361D01*
X134713327Y-93900000D01*
X134707032Y-93823434D01*
X134694773Y-93674318D01*
X134694772Y-93674312D01*
X134694349Y-93669167D01*
X134637925Y-93444533D01*
X134635866Y-93439797D01*
X134547630Y-93236868D01*
X134547628Y-93236865D01*
X134545570Y-93232131D01*
X134419764Y-93037665D01*
X134398223Y-93013991D01*
X134347029Y-92957730D01*
X134263887Y-92866358D01*
X134259836Y-92863159D01*
X134259832Y-92863155D01*
X134086177Y-92726011D01*
X134086172Y-92726008D01*
X134082123Y-92722810D01*
X134077607Y-92720317D01*
X134077604Y-92720315D01*
X133883879Y-92613373D01*
X133883875Y-92613371D01*
X133879355Y-92610876D01*
X133874486Y-92609152D01*
X133874482Y-92609150D01*
X133665903Y-92535288D01*
X133665899Y-92535287D01*
X133661028Y-92533562D01*
X133655935Y-92532655D01*
X133655932Y-92532654D01*
X133438095Y-92493851D01*
X133438089Y-92493850D01*
X133433006Y-92492945D01*
X133360096Y-92492054D01*
X133206581Y-92490179D01*
X133206579Y-92490179D01*
X133201411Y-92490116D01*
X132972464Y-92525150D01*
X132752314Y-92597106D01*
X132747726Y-92599494D01*
X132747722Y-92599496D01*
X132672562Y-92638622D01*
X132546872Y-92704052D01*
X132542739Y-92707155D01*
X132542736Y-92707157D01*
X132406050Y-92809784D01*
X132361655Y-92843117D01*
X132201639Y-93010564D01*
X132198725Y-93014836D01*
X132198724Y-93014837D01*
X132125348Y-93122402D01*
X132071119Y-93201899D01*
X131973602Y-93411981D01*
X131911707Y-93635169D01*
X131887095Y-93865469D01*
X94508500Y-93865469D01*
X94508500Y-91765469D01*
X103287095Y-91765469D01*
X103287392Y-91770622D01*
X103287392Y-91770625D01*
X103293067Y-91869041D01*
X103300427Y-91996697D01*
X103301564Y-92001743D01*
X103301565Y-92001749D01*
X103333741Y-92144523D01*
X103351346Y-92222642D01*
X103353288Y-92227424D01*
X103353289Y-92227428D01*
X103436540Y-92432450D01*
X103438484Y-92437237D01*
X103559501Y-92634719D01*
X103711147Y-92809784D01*
X103889349Y-92957730D01*
X104089322Y-93074584D01*
X104305694Y-93157209D01*
X104310760Y-93158240D01*
X104310761Y-93158240D01*
X104363846Y-93169040D01*
X104532656Y-93203385D01*
X104663324Y-93208176D01*
X104758949Y-93211683D01*
X104758953Y-93211683D01*
X104764113Y-93211872D01*
X104769233Y-93211216D01*
X104769235Y-93211216D01*
X104875342Y-93197623D01*
X104993847Y-93182442D01*
X104998795Y-93180957D01*
X104998802Y-93180956D01*
X105210747Y-93117369D01*
X105215690Y-93115886D01*
X105296236Y-93076427D01*
X105419049Y-93016262D01*
X105419052Y-93016260D01*
X105423684Y-93013991D01*
X105612243Y-92879494D01*
X105776303Y-92716005D01*
X105911458Y-92527917D01*
X105928295Y-92493851D01*
X106011784Y-92324922D01*
X106011785Y-92324920D01*
X106014078Y-92320280D01*
X106081408Y-92098671D01*
X106111640Y-91869041D01*
X106113327Y-91800000D01*
X106097752Y-91610559D01*
X106094773Y-91574318D01*
X106094772Y-91574312D01*
X106094349Y-91569167D01*
X106092400Y-91561406D01*
X137503423Y-91561406D01*
X137508704Y-91568461D01*
X137685080Y-91671527D01*
X137694363Y-91675974D01*
X137901003Y-91754883D01*
X137910901Y-91757759D01*
X138127653Y-91801857D01*
X138137883Y-91803076D01*
X138358914Y-91811182D01*
X138369223Y-91810714D01*
X138588623Y-91782608D01*
X138598688Y-91780468D01*
X138810557Y-91716905D01*
X138820152Y-91713144D01*
X139018778Y-91615838D01*
X139027636Y-91610559D01*
X139085097Y-91569572D01*
X139093497Y-91558874D01*
X139086510Y-91545721D01*
X138312811Y-90772021D01*
X138298868Y-90764408D01*
X138297034Y-90764539D01*
X138290420Y-90768790D01*
X137510180Y-91549031D01*
X137503423Y-91561406D01*
X106092400Y-91561406D01*
X106057902Y-91424064D01*
X106039184Y-91349544D01*
X106039183Y-91349540D01*
X106037925Y-91344533D01*
X106035866Y-91339797D01*
X105947630Y-91136868D01*
X105947628Y-91136865D01*
X105945570Y-91132131D01*
X105819764Y-90937665D01*
X105808001Y-90924737D01*
X105755999Y-90867588D01*
X105663887Y-90766358D01*
X105659836Y-90763159D01*
X105659832Y-90763155D01*
X105486177Y-90626011D01*
X105486172Y-90626008D01*
X105482123Y-90622810D01*
X105477607Y-90620317D01*
X105477604Y-90620315D01*
X105283879Y-90513373D01*
X105283875Y-90513371D01*
X105279355Y-90510876D01*
X105274486Y-90509152D01*
X105274482Y-90509150D01*
X105065903Y-90435288D01*
X105065899Y-90435287D01*
X105061028Y-90433562D01*
X105055935Y-90432655D01*
X105055932Y-90432654D01*
X104838095Y-90393851D01*
X104838089Y-90393850D01*
X104833006Y-90392945D01*
X104760096Y-90392054D01*
X104606581Y-90390179D01*
X104606579Y-90390179D01*
X104601411Y-90390116D01*
X104372464Y-90425150D01*
X104152314Y-90497106D01*
X104147726Y-90499494D01*
X104147722Y-90499496D01*
X103951461Y-90601663D01*
X103946872Y-90604052D01*
X103942739Y-90607155D01*
X103942736Y-90607157D01*
X103772981Y-90734613D01*
X103761655Y-90743117D01*
X103601639Y-90910564D01*
X103598725Y-90914836D01*
X103598724Y-90914837D01*
X103565166Y-90964031D01*
X103471119Y-91101899D01*
X103373602Y-91311981D01*
X103311707Y-91535169D01*
X103287095Y-91765469D01*
X94508500Y-91765469D01*
X94508500Y-85734500D01*
X94528502Y-85666379D01*
X94582158Y-85619886D01*
X94634500Y-85608500D01*
X117432195Y-85608500D01*
X117500316Y-85628502D01*
G37*
%TD.AperFunction*%
%TD*%
M02*
